<?xml version="1.0" encoding="utf-8"?>
<!-- Generator: Adobe Illustrator 27.5.0, SVG Export Plug-In . SVG Version: 6.00 Build 0)  -->
<svg version="1.1" id="_x3C_Layer_x3E_" xmlns="http://www.w3.org/2000/svg" xmlns:xlink="http://www.w3.org/1999/xlink" x="0px"
	 y="0px" viewBox="0 0 2760 1840" style="enable-background:new 0 0 2760 1840;" xml:space="preserve">
<rect style="fill:#FFFFFF;" width="2760" height="1840"/>
<g>
	<g>
		<path style="fill:#EDF4FF;" d="M255.755,1510.293c0,0-187.683-461.255-58.878-731.41
			c150.624-315.922,646.328-525.059,972.878-404.704c510.449,188.133,511.546,157.089,844.207,117.151
			c388.507-46.643,740.644,479.254,450.947,1017.632L255.755,1510.293z"/>
	</g>
	<g>
		<g>
			<path style="fill:#C0D8FB;" d="M1811.672,746.329h-110.887c-5.09,0-9.256-4.165-9.256-9.256V630.049
				c0-5.09,4.166-9.256,9.256-9.256h110.887c5.091,0,9.256,4.166,9.256,9.256v107.024
				C1820.928,742.164,1816.763,746.329,1811.672,746.329z"/>
		</g>
		<g>
			<path style="fill:#DFEBFD;" d="M1806.868,740.891h-101.279c-4.649,0-8.453-3.804-8.453-8.454v-97.752
				c0-4.649,3.804-8.453,8.453-8.453h101.279c4.649,0,8.454,3.804,8.454,8.453v97.752
				C1815.322,737.087,1811.518,740.891,1806.868,740.891z"/>
		</g>
		<g>
			<g>
				<g>
					<path style="fill:#B7D3F3;" d="M1753.549,637.69c0-1.481,1.199-2.681,2.68-2.681s2.681,1.2,2.681,2.681
						c0,1.479-1.2,2.68-2.681,2.68S1753.549,639.169,1753.549,637.69z"/>
				</g>
				<g>
					<path style="fill:#B7D3F3;" d="M1775.177,641.477c0.719-1.294,2.352-1.76,3.646-1.041c1.293,0.719,1.76,2.351,1.04,3.645
						c-0.719,1.294-2.351,1.76-3.645,1.041C1774.925,644.403,1774.457,642.771,1775.177,641.477z"/>
				</g>
				<g>
					<path style="fill:#B7D3F3;" d="M1793.707,656.199c1.243-0.804,2.902-0.445,3.705,0.8c0.803,1.243,0.444,2.901-0.8,3.705
						c-1.243,0.802-2.902,0.444-3.705-0.8C1792.104,658.661,1792.463,657.001,1793.707,656.199z"/>
				</g>
				<g>
					<path style="fill:#B7D3F3;" d="M1802.885,678.984c1.48,0,2.68,1.2,2.68,2.68c0,1.48-1.199,2.682-2.68,2.682
						c-1.479,0-2.68-1.201-2.68-2.682C1800.205,680.185,1801.405,678.984,1802.885,678.984z"/>
				</g>
				<g>
					<path style="fill:#B7D3F3;" d="M1798.198,705.427c1.047,1.047,1.047,2.744,0,3.791c-1.047,1.048-2.743,1.048-3.79,0
						c-1.047-1.047-1.047-2.744,0-3.791C1795.455,704.381,1797.151,704.381,1798.198,705.427z"/>
				</g>
				<g>
					<path style="fill:#B7D3F3;" d="M1781.367,722.303c1.047,1.047,1.047,2.743,0,3.791c-1.047,1.047-2.745,1.047-3.791,0
						c-1.047-1.048-1.047-2.744,0-3.791C1778.622,721.256,1780.32,721.256,1781.367,722.303z"/>
				</g>
				<g>
					<path style="fill:#B7D3F3;" d="M1753.549,731.001c0-1.48,1.199-2.681,2.68-2.681s2.681,1.2,2.681,2.681
						c0,1.48-1.2,2.681-2.681,2.681S1753.549,732.481,1753.549,731.001z"/>
				</g>
			</g>
			<g>
				<g>
					<path style="fill:#B7D3F3;" d="M1737.195,641.477c-0.72-1.294-2.352-1.76-3.645-1.041c-1.295,0.719-1.761,2.351-1.042,3.645
						c0.72,1.294,2.352,1.76,3.646,1.041C1737.449,644.403,1737.914,642.771,1737.195,641.477z"/>
				</g>
				<g>
					<path style="fill:#B7D3F3;" d="M1718.666,656.199c-1.244-0.804-2.903-0.445-3.706,0.8c-0.802,1.243-0.444,2.901,0.8,3.705
						c1.244,0.802,2.902,0.444,3.705-0.8C1720.268,658.661,1719.909,657.001,1718.666,656.199z"/>
				</g>
				<g>
					<path style="fill:#B7D3F3;" d="M1709.487,678.984c-1.48,0-2.681,1.2-2.681,2.68c0,1.48,1.2,2.682,2.681,2.682
						c1.481,0,2.681-1.201,2.681-2.682C1712.168,680.185,1710.969,678.984,1709.487,678.984z"/>
				</g>
				<g>
					<path style="fill:#B7D3F3;" d="M1714.174,705.427c-1.047,1.047-1.047,2.744,0,3.791c1.047,1.048,2.744,1.048,3.791,0
						c1.046-1.047,1.046-2.744,0-3.791C1716.918,704.381,1715.221,704.381,1714.174,705.427z"/>
				</g>
				<g>
					<path style="fill:#B7D3F3;" d="M1731.005,722.303c-1.046,1.047-1.046,2.743,0,3.791c1.047,1.047,2.744,1.047,3.792,0
						c1.046-1.048,1.046-2.744,0-3.791C1733.749,721.256,1732.052,721.256,1731.005,722.303z"/>
				</g>
			</g>
		</g>
		<g>
			<g>
				<path style="fill:#B7D3F3;" d="M1755.506,681.664c0-1.48,1.2-2.68,2.681-2.68s2.68,1.2,2.68,2.68c0,1.48-1.199,2.682-2.68,2.682
					S1755.506,683.144,1755.506,681.664z"/>
			</g>
			<g>
				<g>
					<rect x="1757.82" y="648.18" style="fill:#B7D3F3;" width="0.732" height="33.484"/>
				</g>
			</g>
			<g>
				<g>
					
						<rect x="1755.44" y="673.551" transform="matrix(0.7865 -0.6176 0.6176 0.7865 -39.4768 1235.099)" style="fill:#B7D3F3;" width="22.569" height="2.196"/>
				</g>
			</g>
		</g>
	</g>
	<g style="opacity:0.5;">
		<g>
			<g>
				<rect x="1924.535" y="679.102" style="fill:#BAD4F4;" width="453.552" height="829.088"/>
			</g>
			<g>
				<rect x="1944.445" y="693.665" style="fill:#DFEBFD;" width="414.285" height="814.524"/>
			</g>
			<g>
				<path style="fill:#C8DBF4;" d="M2288.459,1095.359c0-10.115,8.199-18.315,18.313-18.315s18.314,8.2,18.314,18.315
					c0,10.114-8.2,18.313-18.314,18.313S2288.459,1105.474,2288.459,1095.359z"/>
			</g>
			<g>
				<g>
					<rect x="2066.686" y="817.102" style="fill:#FFFFFF;" width="171.014" height="53.985"/>
				</g>
				<g>
					<rect x="2098.423" y="833.839" style="fill:#BAD4F4;" width="107.54" height="5.554"/>
				</g>
				<g>
					<rect x="2113.475" y="848.795" style="fill:#BAD4F4;" width="77.436" height="5.555"/>
				</g>
			</g>
		</g>
		<g>
			<g>
				<path style="fill:#BAD4F4;" d="M2239.751,873.14h-175.117v-58.091h175.117V873.14z M2068.738,869.035h166.908v-49.881h-166.908
					V869.035z"/>
			</g>
		</g>
	</g>
	<g style="opacity:0.5;">
		<g>
			<polygon style="fill:#FFFFFF;" points="667.016,524.027 553.846,524.027 553.846,728.525 698.786,728.525 698.786,552.16 			"/>
		</g>
		<g>
			<path style="fill:#DDE7FE;" d="M707.731,553.589h-40.717c-0.754,0-1.364-0.61-1.364-1.364v-28.198
				c0-0.755,0.61-1.365,1.364-1.365c0.755,0,1.365,0.61,1.365,1.365v26.833h39.352c0.754,0,1.364,0.61,1.364,1.365
				C709.096,552.979,708.485,553.589,707.731,553.589z"/>
		</g>
		<g>
			<path style="fill:#7C9AF2;" d="M654.675,551.92h-60.457c-0.754,0-1.364-0.61-1.364-1.364c0-0.754,0.61-1.364,1.364-1.364h60.457
				c0.755,0,1.365,0.61,1.365,1.364C656.04,551.31,655.43,551.92,654.675,551.92z"/>
		</g>
		<g>
			<path style="fill:#7C9AF2;" d="M687.375,578.306H565.242c-0.754,0-1.365-0.61-1.365-1.365c0-0.754,0.611-1.363,1.365-1.363
				h122.133c0.754,0,1.363,0.609,1.363,1.363C688.738,577.695,688.129,578.306,687.375,578.306z"/>
		</g>
		<g>
			<path style="fill:#7C9AF2;" d="M687.375,587.501H565.242c-0.754,0-1.365-0.611-1.365-1.366c0-0.752,0.611-1.363,1.365-1.363
				h122.133c0.754,0,1.363,0.611,1.363,1.363C688.738,586.89,688.129,587.501,687.375,587.501z"/>
		</g>
		<g>
			<path style="fill:#7C9AF2;" d="M687.375,600.629H565.242c-0.754,0-1.365-0.61-1.365-1.364c0-0.754,0.611-1.364,1.365-1.364
				h122.133c0.754,0,1.363,0.61,1.363,1.364C688.738,600.019,688.129,600.629,687.375,600.629z"/>
		</g>
		<g>
			<path style="fill:#7C9AF2;" d="M687.375,609.823H565.242c-0.754,0-1.365-0.609-1.365-1.363c0-0.755,0.611-1.365,1.365-1.365
				h122.133c0.754,0,1.363,0.61,1.363,1.365C688.738,609.214,688.129,609.823,687.375,609.823z"/>
		</g>
		<g>
			<path style="fill:#7C9AF2;" d="M687.375,619.021H565.242c-0.754,0-1.365-0.61-1.365-1.364c0-0.754,0.611-1.365,1.365-1.365
				h122.133c0.754,0,1.363,0.611,1.363,1.365C688.738,618.411,688.129,619.021,687.375,619.021z"/>
		</g>
		<g>
			<path style="fill:#7C9AF2;" d="M687.375,628.216H565.242c-0.754,0-1.365-0.609-1.365-1.363c0-0.755,0.611-1.366,1.365-1.366
				h122.133c0.754,0,1.363,0.611,1.363,1.366C688.738,627.606,688.129,628.216,687.375,628.216z"/>
		</g>
		<g>
			<path style="fill:#7C9AF2;" d="M687.375,663.094H565.242c-0.754,0-1.365-0.611-1.365-1.366c0-0.753,0.611-1.363,1.365-1.363
				h122.133c0.754,0,1.363,0.61,1.363,1.363C688.738,662.482,688.129,663.094,687.375,663.094z"/>
		</g>
		<g>
			<path style="fill:#7C9AF2;" d="M687.375,672.288H565.242c-0.754,0-1.365-0.61-1.365-1.364c0-0.754,0.611-1.365,1.365-1.365
				h122.133c0.754,0,1.363,0.611,1.363,1.365C688.738,671.678,688.129,672.288,687.375,672.288z"/>
		</g>
		<g>
			<path style="fill:#7C9AF2;" d="M687.375,681.482H565.242c-0.754,0-1.365-0.609-1.365-1.364c0-0.754,0.611-1.365,1.365-1.365
				h122.133c0.754,0,1.363,0.611,1.363,1.365C688.738,680.873,688.129,681.482,687.375,681.482z"/>
		</g>
		<g>
			<path style="fill:#7C9AF2;" d="M687.375,690.68H565.242c-0.754,0-1.365-0.609-1.365-1.364c0-0.754,0.611-1.364,1.365-1.364
				h122.133c0.754,0,1.363,0.61,1.363,1.364C688.738,690.07,688.129,690.68,687.375,690.68z"/>
		</g>
	</g>
	<g style="opacity:0.5;">
		<g>
			<polygon style="fill:#FFFFFF;" points="1364.598,632.943 1260.64,632.943 1260.64,820.793 1393.78,820.793 1393.78,658.785 			
				"/>
		</g>
		<g>
			<path style="fill:#DDE7FE;" d="M1401.997,660.099h-37.4c-0.693,0-1.254-0.561-1.254-1.254v-25.901
				c0-0.693,0.561-1.254,1.254-1.254c0.692,0,1.253,0.56,1.253,1.254v24.648h36.147c0.694,0,1.254,0.56,1.254,1.253
				C1403.251,659.537,1402.691,660.099,1401.997,660.099z"/>
		</g>
		<g>
			<path style="fill:#7C9AF2;" d="M1353.261,658.565h-55.535c-0.692,0-1.253-0.561-1.253-1.253c0-0.693,0.561-1.254,1.253-1.254
				h55.535c0.693,0,1.254,0.56,1.254,1.254C1354.515,658.005,1353.954,658.565,1353.261,658.565z"/>
		</g>
		<g>
			<path style="fill:#7C9AF2;" d="M1383.298,682.804h-112.188c-0.693,0-1.254-0.56-1.254-1.255c0-0.692,0.561-1.252,1.254-1.252
				h112.188c0.693,0,1.254,0.56,1.254,1.252C1384.552,682.243,1383.991,682.804,1383.298,682.804z"/>
		</g>
		<g>
			<path style="fill:#7C9AF2;" d="M1383.298,691.249h-112.188c-0.693,0-1.254-0.56-1.254-1.253s0.561-1.254,1.254-1.254h112.188
				c0.693,0,1.254,0.56,1.254,1.254S1383.991,691.249,1383.298,691.249z"/>
		</g>
		<g>
			<path style="fill:#7C9AF2;" d="M1383.298,703.31h-112.188c-0.693,0-1.254-0.561-1.254-1.253c0-0.693,0.561-1.254,1.254-1.254
				h112.188c0.693,0,1.254,0.561,1.254,1.254C1384.552,702.749,1383.991,703.31,1383.298,703.31z"/>
		</g>
		<g>
			<path style="fill:#7C9AF2;" d="M1383.298,711.756h-112.188c-0.693,0-1.254-0.561-1.254-1.254c0-0.692,0.561-1.253,1.254-1.253
				h112.188c0.693,0,1.254,0.561,1.254,1.253C1384.552,711.195,1383.991,711.756,1383.298,711.756z"/>
		</g>
		<g>
			<path style="fill:#7C9AF2;" d="M1383.298,720.205h-112.188c-0.693,0-1.254-0.561-1.254-1.254c0-0.693,0.561-1.254,1.254-1.254
				h112.188c0.693,0,1.254,0.56,1.254,1.254C1384.552,719.644,1383.991,720.205,1383.298,720.205z"/>
		</g>
		<g>
			<path style="fill:#7C9AF2;" d="M1383.298,728.65h-112.188c-0.693,0-1.254-0.561-1.254-1.253c0-0.692,0.561-1.253,1.254-1.253
				h112.188c0.693,0,1.254,0.561,1.254,1.253C1384.552,728.09,1383.991,728.65,1383.298,728.65z"/>
		</g>
		<g>
			<path style="fill:#7C9AF2;" d="M1383.298,760.688h-112.188c-0.693,0-1.254-0.561-1.254-1.254s0.561-1.254,1.254-1.254h112.188
				c0.693,0,1.254,0.56,1.254,1.254S1383.991,760.688,1383.298,760.688z"/>
		</g>
		<g>
			<path style="fill:#7C9AF2;" d="M1383.298,769.135h-112.188c-0.693,0-1.254-0.561-1.254-1.254c0-0.692,0.561-1.253,1.254-1.253
				h112.188c0.693,0,1.254,0.561,1.254,1.253C1384.552,768.574,1383.991,769.135,1383.298,769.135z"/>
		</g>
		<g>
			<path style="fill:#7C9AF2;" d="M1383.298,777.581h-112.188c-0.693,0-1.254-0.562-1.254-1.254c0-0.692,0.561-1.253,1.254-1.253
				h112.188c0.693,0,1.254,0.561,1.254,1.253C1384.552,777.019,1383.991,777.581,1383.298,777.581z"/>
		</g>
		<g>
			<path style="fill:#7C9AF2;" d="M1383.298,786.029h-112.188c-0.693,0-1.254-0.56-1.254-1.253c0-0.692,0.561-1.254,1.254-1.254
				h112.188c0.693,0,1.254,0.561,1.254,1.254C1384.552,785.469,1383.991,786.029,1383.298,786.029z"/>
		</g>
	</g>
	<g>
		<g>
			<g>
				<rect x="735.1" y="586.881" style="fill:#FFFFFF;" width="481.622" height="318.564"/>
			</g>
			<g>
				<path style="fill:#BDD1F9;" d="M1219.976,908.697H731.849V583.628h488.127V908.697z M738.353,902.192h475.115v-312.06H738.353
					V902.192z"/>
			</g>
		</g>
		<g>
			<rect x="1046.609" y="617.334" style="fill:#BDD1F9;" width="138.197" height="170.189"/>
		</g>
		<g>
			<g>
				<path style="fill:#BDD1F9;" d="M1184.802,811.018h-138.188c-0.898,0-1.626-0.728-1.626-1.627c0-0.898,0.728-1.626,1.626-1.626
					h138.188c0.898,0,1.626,0.728,1.626,1.626C1186.428,810.29,1185.7,811.018,1184.802,811.018z"/>
			</g>
			<g>
				<path style="fill:#BDD1F9;" d="M1184.802,841.464h-138.188c-0.898,0-1.626-0.728-1.626-1.626c0-0.899,0.728-1.626,1.626-1.626
					h138.188c0.898,0,1.626,0.727,1.626,1.626C1186.428,840.736,1185.7,841.464,1184.802,841.464z"/>
			</g>
			<g>
				<path style="fill:#BDD1F9;" d="M1184.802,858.642h-138.188c-0.898,0-1.626-0.727-1.626-1.628c0-0.898,0.728-1.626,1.626-1.626
					h138.188c0.898,0,1.626,0.727,1.626,1.626C1186.428,857.914,1185.7,858.642,1184.802,858.642z"/>
			</g>
			<g>
				<path style="fill:#BDD1F9;" d="M1184.802,824.29h-138.188c-0.898,0-1.626-0.727-1.626-1.627c0-0.898,0.728-1.626,1.626-1.626
					h138.188c0.898,0,1.626,0.727,1.626,1.626C1186.428,823.563,1185.7,824.29,1184.802,824.29z"/>
			</g>
		</g>
		<g>
			<g>
				<path style="fill:#BDD1F9;" d="M840.107,751.29h-88.611c-0.898,0-1.626-0.727-1.626-1.627c0-0.898,0.728-1.626,1.626-1.626
					h88.611c0.899,0,1.627,0.727,1.627,1.626C841.734,750.563,841.007,751.29,840.107,751.29z"/>
			</g>
			<g>
				<path style="fill:#BDD1F9;" d="M840.107,781.739h-88.611c-0.898,0-1.626-0.728-1.626-1.626c0-0.898,0.728-1.626,1.626-1.626
					h88.611c0.899,0,1.627,0.727,1.627,1.626C841.734,781.012,841.007,781.739,840.107,781.739z"/>
			</g>
			<g>
				<path style="fill:#BDD1F9;" d="M840.107,798.918h-88.611c-0.898,0-1.626-0.729-1.626-1.627c0-0.899,0.728-1.628,1.626-1.628
					h88.611c0.899,0,1.627,0.729,1.627,1.628C841.734,798.19,841.007,798.918,840.107,798.918z"/>
			</g>
			<g>
				<path style="fill:#BDD1F9;" d="M840.107,764.563h-88.611c-0.898,0-1.626-0.728-1.626-1.627c0-0.899,0.728-1.627,1.626-1.627
					h88.611c0.899,0,1.627,0.728,1.627,1.627C841.734,763.835,841.007,764.563,840.107,764.563z"/>
			</g>
		</g>
		<g>
			<g>
				<path style="fill:#BDD1F9;" d="M840.107,814.922h-88.611c-0.898,0-1.626-0.728-1.626-1.627c0-0.899,0.728-1.627,1.626-1.627
					h88.611c0.899,0,1.627,0.727,1.627,1.627C841.734,814.194,841.007,814.922,840.107,814.922z"/>
			</g>
			<g>
				<path style="fill:#BDD1F9;" d="M840.107,845.368h-88.611c-0.898,0-1.626-0.728-1.626-1.626c0-0.899,0.728-1.627,1.626-1.627
					h88.611c0.899,0,1.627,0.728,1.627,1.627C841.734,844.641,841.007,845.368,840.107,845.368z"/>
			</g>
			<g>
				<path style="fill:#BDD1F9;" d="M840.107,862.545h-88.611c-0.898,0-1.626-0.727-1.626-1.626c0-0.898,0.728-1.626,1.626-1.626
					h88.611c0.899,0,1.627,0.727,1.627,1.626C841.734,861.818,841.007,862.545,840.107,862.545z"/>
			</g>
			<g>
				<path style="fill:#BDD1F9;" d="M840.107,828.194h-88.611c-0.898,0-1.626-0.727-1.626-1.626c0-0.898,0.728-1.627,1.626-1.627
					h88.611c0.899,0,1.627,0.729,1.627,1.627C841.734,827.467,841.007,828.194,840.107,828.194z"/>
			</g>
		</g>
		<g>
			<g>
				<path style="fill:#BDD1F9;" d="M1023.185,618.957H856.894c-0.898,0-1.626-0.727-1.626-1.626c0-0.9,0.727-1.627,1.626-1.627
					h166.291c0.899,0,1.626,0.727,1.626,1.627C1024.811,618.229,1024.084,618.957,1023.185,618.957z"/>
			</g>
			<g>
				<path style="fill:#BDD1F9;" d="M1023.185,649.407H856.894c-0.898,0-1.626-0.731-1.626-1.628c0-0.9,0.727-1.628,1.626-1.628
					h166.291c0.899,0,1.626,0.727,1.626,1.628C1024.811,648.676,1024.084,649.407,1023.185,649.407z"/>
			</g>
			<g>
				<path style="fill:#BDD1F9;" d="M1023.185,666.58H856.894c-0.898,0-1.626-0.728-1.626-1.627c0-0.898,0.727-1.626,1.626-1.626
					h166.291c0.899,0,1.626,0.728,1.626,1.626C1024.811,665.852,1024.084,666.58,1023.185,666.58z"/>
			</g>
			<g>
				<path style="fill:#BDD1F9;" d="M1023.185,632.229H856.894c-0.898,0-1.626-0.727-1.626-1.627c0-0.898,0.727-1.626,1.626-1.626
					h166.291c0.899,0,1.626,0.727,1.626,1.626C1024.811,631.502,1024.084,632.229,1023.185,632.229z"/>
			</g>
		</g>
		<g>
			<g>
				<path style="fill:#BDD1F9;" d="M1023.185,680.244H856.894c-0.898,0-1.626-0.727-1.626-1.627c0-0.898,0.727-1.627,1.626-1.627
					h166.291c0.899,0,1.626,0.729,1.626,1.627C1024.811,679.517,1024.084,680.244,1023.185,680.244z"/>
			</g>
			<g>
				<path style="fill:#BDD1F9;" d="M1023.185,710.693H856.894c-0.898,0-1.626-0.728-1.626-1.627c0-0.898,0.727-1.626,1.626-1.626
					h166.291c0.899,0,1.626,0.728,1.626,1.626C1024.811,709.966,1024.084,710.693,1023.185,710.693z"/>
			</g>
			<g>
				<path style="fill:#BDD1F9;" d="M1023.185,727.867H856.894c-0.898,0-1.626-0.728-1.626-1.626c0-0.899,0.727-1.627,1.626-1.627
					h166.291c0.899,0,1.626,0.727,1.626,1.627C1024.811,727.14,1024.084,727.867,1023.185,727.867z"/>
			</g>
			<g>
				<path style="fill:#BDD1F9;" d="M1023.185,693.517H856.894c-0.898,0-1.626-0.727-1.626-1.626c0-0.899,0.727-1.627,1.626-1.627
					h166.291c0.899,0,1.626,0.728,1.626,1.627C1024.811,692.789,1024.084,693.517,1023.185,693.517z"/>
			</g>
		</g>
		<g>
			<g>
				<path style="fill:#BDD1F9;" d="M1023.185,765.345H856.894c-0.898,0-1.626-0.728-1.626-1.627c0-0.899,0.727-1.626,1.626-1.626
					h166.291c0.899,0,1.626,0.727,1.626,1.626C1024.811,764.617,1024.084,765.345,1023.185,765.345z"/>
			</g>
			<g>
				<path style="fill:#BDD1F9;" d="M1023.185,795.791H856.894c-0.898,0-1.626-0.728-1.626-1.626c0-0.899,0.727-1.626,1.626-1.626
					h166.291c0.899,0,1.626,0.727,1.626,1.626C1024.811,795.063,1024.084,795.791,1023.185,795.791z"/>
			</g>
			<g>
				<path style="fill:#BDD1F9;" d="M1023.185,812.969H856.894c-0.898,0-1.626-0.729-1.626-1.628c0-0.898,0.727-1.626,1.626-1.626
					h166.291c0.899,0,1.626,0.728,1.626,1.626C1024.811,812.24,1024.084,812.969,1023.185,812.969z"/>
			</g>
			<g>
				<path style="fill:#BDD1F9;" d="M1023.185,778.617H856.894c-0.898,0-1.626-0.728-1.626-1.627c0-0.898,0.727-1.626,1.626-1.626
					h166.291c0.899,0,1.626,0.727,1.626,1.626C1024.811,777.89,1024.084,778.617,1023.185,778.617z"/>
			</g>
		</g>
		<g>
			<g>
				<path style="fill:#BDD1F9;" d="M1023.185,824.29H856.894c-0.898,0-1.626-0.727-1.626-1.627c0-0.898,0.727-1.626,1.626-1.626
					h166.291c0.899,0,1.626,0.727,1.626,1.626C1024.811,823.563,1024.084,824.29,1023.185,824.29z"/>
			</g>
			<g>
				<path style="fill:#BDD1F9;" d="M1023.185,854.736H856.894c-0.898,0-1.626-0.727-1.626-1.626c0-0.9,0.727-1.627,1.626-1.627
					h166.291c0.899,0,1.626,0.727,1.626,1.627C1024.811,854.01,1024.084,854.736,1023.185,854.736z"/>
			</g>
			<g>
				<path style="fill:#BDD1F9;" d="M1023.185,871.914H856.894c-0.898,0-1.626-0.728-1.626-1.626c0-0.899,0.727-1.628,1.626-1.628
					h166.291c0.899,0,1.626,0.728,1.626,1.628C1024.811,871.187,1024.084,871.914,1023.185,871.914z"/>
			</g>
			<g>
				<path style="fill:#BDD1F9;" d="M1023.185,837.563H856.894c-0.898,0-1.626-0.727-1.626-1.626c0-0.899,0.727-1.626,1.626-1.626
					h166.291c0.899,0,1.626,0.727,1.626,1.626C1024.811,836.835,1024.084,837.563,1023.185,837.563z"/>
			</g>
		</g>
		<g>
			<path style="fill:#BDD1F9;" d="M842.843,735.286h-91.347c-0.898,0-1.626-0.728-1.626-1.628V610.303
				c0-0.898,0.728-1.626,1.626-1.626h91.347c0.899,0,1.627,0.727,1.627,1.626v123.356
				C844.47,734.558,843.742,735.286,842.843,735.286z M753.123,732.032h88.093V611.93h-88.093V732.032z"/>
		</g>
		<g>
			<rect x="758.389" y="618.957" style="fill:#F99746;" width="76.601" height="13.273"/>
		</g>
		<g>
			<path style="fill:#BDD1F9;" d="M807.619,644.531h-47.351c-1.038,0-1.88-0.842-1.88-1.881l0,0c0-1.038,0.842-1.88,1.88-1.88
				h47.351c1.038,0,1.88,0.842,1.88,1.88l0,0C809.499,643.69,808.657,644.531,807.619,644.531z"/>
		</g>
		<g>
			<path style="fill:#BDD1F9;" d="M832.539,653.01h-72.271c-1.038,0-1.88-0.842-1.88-1.881l0,0c0-1.038,0.842-1.88,1.88-1.88h72.271
				c1.038,0,1.881,0.842,1.881,1.88l0,0C834.42,652.168,833.577,653.01,832.539,653.01z"/>
		</g>
		<g>
			<path style="fill:#BDD1F9;" d="M821.98,661.488h-61.849c-0.963,0-1.743-0.781-1.743-1.744v-0.273c0-0.963,0.78-1.743,1.743-1.743
				h61.849c0.962,0,1.743,0.78,1.743,1.743v0.273C823.724,660.707,822.942,661.488,821.98,661.488z"/>
		</g>
		<g>
			<path style="fill:#BDD1F9;" d="M807.619,672.019h-47.351c-1.038,0-1.88-0.842-1.88-1.881l0,0c0-1.038,0.842-1.881,1.88-1.881
				h47.351c1.038,0,1.88,0.843,1.88,1.881l0,0C809.499,671.178,808.657,672.019,807.619,672.019z"/>
		</g>
		<g>
			<path style="fill:#BDD1F9;" d="M832.539,680.498h-72.271c-1.038,0-1.88-0.843-1.88-1.881l0,0c0-1.039,0.842-1.88,1.88-1.88
				h72.271c1.038,0,1.881,0.841,1.881,1.88l0,0C834.42,679.655,833.577,680.498,832.539,680.498z"/>
		</g>
		<g>
			<path style="fill:#BDD1F9;" d="M821.98,688.976h-61.849c-0.963,0-1.743-0.779-1.743-1.743v-0.274c0-0.962,0.78-1.743,1.743-1.743
				h61.849c0.962,0,1.743,0.781,1.743,1.743v0.274C823.724,688.196,822.942,688.976,821.98,688.976z"/>
		</g>
		<g>
			<path style="fill:#BDD1F9;" d="M807.619,702.469h-47.351c-1.038,0-1.88-0.841-1.88-1.88l0,0c0-1.038,0.842-1.881,1.88-1.881
				h47.351c1.038,0,1.88,0.843,1.88,1.881l0,0C809.499,701.628,808.657,702.469,807.619,702.469z"/>
		</g>
		<g>
			<path style="fill:#BDD1F9;" d="M832.539,710.948h-72.271c-1.038,0-1.88-0.843-1.88-1.882l0,0c0-1.038,0.842-1.879,1.88-1.879
				h72.271c1.038,0,1.881,0.841,1.881,1.879l0,0C834.42,710.106,833.577,710.948,832.539,710.948z"/>
		</g>
		<g>
			<path style="fill:#BDD1F9;" d="M821.98,719.426h-61.849c-0.963,0-1.743-0.78-1.743-1.743v-0.274c0-0.963,0.78-1.743,1.743-1.743
				h61.849c0.962,0,1.743,0.78,1.743,1.743v0.274C823.724,718.646,822.942,719.426,821.98,719.426z"/>
		</g>
		<g>
			<path style="fill:#9EB9E5;" d="M1154.321,777.864c17.243-24.896,1.728-44.434-8.465-53.525
				c3.885-8.558-1.263-16.036-1.263-16.036c4.521-2.598,7.397-7.363,6.713-13.625c0,0-6.041-7.063-9.172-10.471
				c3.397-4.232,3.27-10.98-0.429-15.005c-1.96-2.146-4.778-3.595-6.054-6.204c-1.901-3.942,0.476-8.488,0.986-12.824
				c0.857-7.282-3.873-14.321-10.007-18.333c-7.584-4.963-17.834-8.442-26.403-4.626c-7.397,3.315-13.045,10.726-13.648,18.9
				c-0.139,1.844-0.093,3.861-1.217,5.334c-0.708,0.938-1.798,1.508-2.656,2.308c-3.084,2.841-2.713,7.85-1.172,11.746
				c1.323,3.352,3.328,7.108,1.659,10.297c-0.986,1.89-2.992,2.945-4.766,4.105c-4.917,3.211-8.883,8.429-9.068,14.285
				c-0.162,5.265,3.548,10.668,8.546,11.735c-1.635,6.968-2.446,12.882-2.446,12.882l3.56,1.148
				c-1.218,6.957-2.029,15.086-1.159,22.24c-0.069,10.354,9.103,25.939,15.84,35.981c-0.035,0.233-0.07,0.476-0.093,0.707
				c-0.151,1.554-0.337,4.569-0.545,8.639h60.899c0.116-2.586,0.209-4.892,0.302-6.888c0.034-0.788,0.034-1.588,0-2.4
				c0.069-0.069,0.151-0.138,0.221-0.208l-0.163-0.151V777.864z M1105.632,749.977c-2.215,3.874-5.462,9.834-8.024,15.817
				c-4.221-11.027-8.082-21.904-8.082-21.904l4.754-19.017l1.797,0.579l1.288-4.209l8.615,19.736
				C1107.348,743.854,1107.209,747.218,1105.632,749.977z"/>
		</g>
		<g>
			<path style="fill:#88A9D8;" d="M1139.009,733.834c0,0,9.737,2.949,13.631,14.132c3.895,11.183,1.112,22.032-9.458,24.258
				c-10.571,2.225-20.028-5.009-21.977-13.352C1119.258,750.524,1122.065,731.663,1139.009,733.834z"/>
		</g>
	</g>
	<g>
		<g>
			<path style="fill:#AEC3FF;" d="M1469.996,1406.249c0,0,23.652-79.599-138.18-92.048
				c-169.463-13.035-75.938-230.301-205.404-255.198l27.388,347.246H1469.996z"/>
		</g>
		<g>
			<polygon style="fill:#AEC3FF;" points="397.796,1059.003 1126.412,1059.003 1190.771,1280.371 1375.255,1406.249 
				566.126,1406.249 			"/>
		</g>
		<g>
			<path style="fill:#D4E4F8;" d="M741.381,1406.249c0,0,23.652-79.599-138.181-92.048
				c-169.462-13.035-75.938-230.301-205.404-255.198l27.388,347.246H741.381z"/>
		</g>
		<g>
			<g>
				<path style="fill:#AEC3FF;" d="M679.393,1504.877h-0.452c-3.066,0.004-5.423-2.711-4.988-5.746l13.293-92.882h19.451
					l-22.738,95.022C683.452,1503.385,681.565,1504.876,679.393,1504.877z"/>
			</g>
		</g>
		<g>
			<g>
				<path style="fill:#AEC3FF;" d="M1420.668,1504.877h0.453c3.066,0.004,5.423-2.711,4.987-5.746l-13.294-92.882h-19.45
					l22.738,95.022C1416.607,1503.385,1418.496,1504.876,1420.668,1504.877z"/>
			</g>
		</g>
	</g>
	<g>
		<g>
			<g>
				<path style="fill:#233862;" d="M740.609,929.993c-12.276-3.158-29.08-0.013-31.866,0.263
					c-33.336,3.282-44.535,40.47-39.49,69.318c4.656,26.625-13.205,31.603-28.855,52.633c-31.381,42.166-6.516,80.108,18.247,89.274
					c14.858,5.5,35.484-8.375,35.484-8.375c0.374,0.148,64.814-42.219,91.233-66.103
					C829.547,1067.813,771.893,938.042,740.609,929.993z"/>
			</g>
			<g>
				<path style="fill:#FFB27D;" d="M879.232,1490.995c-0.84,7.538,9.637,9.573,21.8,10.413c12.163,0.838,8.437,3.261,25.063,6.602
					c16.627,3.339,23.4-1.099,24.65-3.33c1.113-1.979-6.583-5.256-14.782-8.948c-1.033-0.461-2.066-0.937-3.1-1.411
					c-9.225-4.269-14.286-12.713-21.393-20.586c-6.731-7.459-12.807-31.046-12.807-31.046l-22.58-5.273
					c0,0,5.963,21.237,8.002,30.294c1.198,5.327-0.833,11.219-2.622,15.697C880.5,1485.844,879.525,1488.339,879.232,1490.995z"/>
			</g>
			<g>
				<path style="fill:#F9DDBF;" d="M742.817,1044.307c0,0,38.11,6.438,42.545,22.697c4.435,16.26,20.387,96.496,20.387,96.496
					s-17.337,27.453-26.205,18.584c-8.869-8.868-22.577-90.938-22.577-90.938L742.817,1044.307z"/>
			</g>
			<g>
				<path style="fill:#F9DDBF;" d="M805.018,1158.697c-0.04,0,35.766,59.978,35.766,59.978s-0.799,2.903-10.404,5.826
					c0,0-41.409-5.514-58.887-32.148c-4.323-6.588-3.224-26.556-3.224-26.556L805.018,1158.697z"/>
			</g>
			<g>
				<path style="fill:#EAC3A0;" d="M773.364,1084.876c0,0,12.068,16.647,12.484,32.877c0.417,16.231,17.479,42.034,19.977,58.681
					c2.497,16.646,10.82,47.86,10.82,47.86l-39.536,8.323l-29.964-63.259l-6.243-53.269L773.364,1084.876z"/>
			</g>
			<g>
				<path style="fill:#233862;" d="M901.032,1501.408c12.163,0.838,8.437,3.261,25.063,6.602c16.627,3.339,23.4-1.099,24.65-3.33
					c1.113-1.979-6.583-5.256-14.782-8.948l-0.133,0.139c0,0-11.807,3.76-25.277-0.18c-10.979-3.208-21.525-10.007-29.089-12.284
					c-0.964,2.438-1.939,4.933-2.232,7.589C878.393,1498.533,888.869,1500.568,901.032,1501.408z"/>
			</g>
			<g>
				<path style="fill:#FFB27D;" d="M753.896,1458.566c-5.068,5.642,2.268,13.394,11.673,21.151
					c9.405,7.758,4.964,7.562,16.544,19.95c11.58,12.39,19.67,12.721,21.986,11.633c2.058-0.962-2.297-8.104-6.817-15.878
					c-0.571-0.976-1.136-1.963-1.698-2.95c-5.021-8.839-4.226-18.651-5.425-29.19c-1.134-9.982,7.646-32.701,7.646-32.701
					l-15.298-17.426c0,0-7.505,20.742-11.116,29.294c-2.124,5.03-7.204,8.641-11.265,11.243
					C757.924,1455.114,755.681,1456.576,753.896,1458.566z"/>
			</g>
			<g>
				<path style="fill:#233862;" d="M765.569,1479.718c9.405,7.758,4.964,7.562,16.544,19.95c11.58,12.39,19.67,12.721,21.986,11.633
					c2.058-0.962-2.297-8.104-6.817-15.878l-0.188,0.036c0,0-11.791-3.812-20.455-14.853c-7.064-8.997-11.687-20.663-16.513-26.914
					c-2.203,1.422-4.446,2.884-6.231,4.874C748.828,1464.208,756.164,1471.96,765.569,1479.718z"/>
			</g>
			<g>
				<path style="fill:#ED7D2B;" d="M769.619,1197.658c0,0,4.161,7.491,18.311,11.653c14.15,4.161,112.782,38.911,123.395,60.76
					c10.459,21.533-2.705,196.641-2.705,196.641s-13.108,8.74-26.219,1.249c0,0-22.265-93.014-21.017-126.1
					c1.249-33.086,0.624-54.311,0.624-54.311s-145.451-18.727-154.19-36.83c-8.739-18.104,10.612-49.316,10.612-49.316
					L769.619,1197.658z"/>
			</g>
			<g>
				<path style="fill:#F99746;" d="M676.044,1199.369c0,0-22.537,38.241-2.248,77.882c17.51,34.212,144.576,25.155,148.572,32.149
					c2.496,4.369-9.364,7.803-29.964,60.864c-18.749,48.293-21.745,72.31-21.745,72.31s12.277,19.145,26.011,17.896
					c0,0,94.394-139.843,95.303-161.683c1.248-29.963-31.837-37.454-48.067-45.57c-16.23-8.115-82.193-31.421-89.685-36.414
					c-7.491-4.995-3.746-23.93-3.746-23.93L676.044,1199.369z"/>
			</g>
			<g>
				<path style="fill:#FFB27D;" d="M745.532,1051.66c0.154,0.056-13.704,9.052-24.836,6.965
					c-10.471-1.952-20.411-15.682-20.273-15.724c4.267-1.217,7.189-6.279,4.997-31.884l1.992,0.225l33.503,3.825
					c0,0,0.101,10.437,0.879,20.213C742.446,1043.488,743.582,1050.938,745.532,1051.66z"/>
			</g>
			<g>
				<path style="fill:#ED975D;" d="M740.916,1015.067c0,0,0.101,10.437,0.879,20.213c-18.49,0.993-29.621-15.037-34.382-24.038
					L740.916,1015.067z"/>
			</g>
			<g>
				<path style="fill:#FFB27D;" d="M747.836,1023.817c0,0-43.59,4.299-45.849-22.888c-2.26-27.186-9.407-44.941,18.328-48.836
					c27.734-3.894,34.011,6.03,36.972,14.922C760.249,975.906,759.116,1021.999,747.836,1023.817z"/>
			</g>
			<g>
				<path style="fill:#233862;" d="M743.165,947.803c0,0-5.488,33.213-30.314,41.094c-18.11,5.749-26.313,1.958-26.313,1.958
					s8.721-11.563,11.817-27.633c0.913-4.736,4.283-8.634,8.865-10.142C720.089,948.846,735.684,937.271,743.165,947.803z"/>
			</g>
			<g>
				<path style="fill:#233862;" d="M734.952,954.887c0,0,8.213,1.83,15.493,12.432c3.979,5.792,8.586,20.394,7.8,26.86
					c0,0,7.63-30.739-3.495-42.175C742.954,939.879,734.952,954.887,734.952,954.887z"/>
			</g>
			<g>
				<path style="fill:#F9DDBF;" d="M664.743,1221.068c-0.181,3.813,9.864,20.257,47.806,21.63
					c14.657,0.531,33.479-1.187,57.487-6.755c15.133-3.508,25.408-19.095,26.22-22.055c12.896-47.025-11.656-74.598-21.643-84.898
					c-2.86-2.946,2.428-10.481,3.744-14.981c8.116-27.78-35.543-69.703-35.543-69.703s-2.61,18.351-39.311-3.429
					c-1.299-0.774-15.75,20.625-29.658,46.993c-13.878,26.338-11.755,33.892-8.028,48.512c0.399,1.535,0.806,3.152,1.217,4.875
					c0.787,3.309,1.249,6.393,1.998,9.152C682.535,1200.155,665.368,1207.958,664.743,1221.068z"/>
			</g>
			<g>
				<path style="fill:#FFB27D;" d="M840.081,1217.869c1.044,0,13.852,2.208,17.819,7.428c3.967,5.221,13.572,13.155,9.814,14.408
					c-3.76,1.253-13.991-5.847-17.123-5.847s-10.648,1.253-13.989-2.714c-3.341-3.968-7.758-7.189-7.758-7.189L840.081,1217.869z"/>
			</g>
			<g>
				<path style="fill:#FFB27D;" d="M837.881,1232.396c0,0,8.535,4.698,9.867,6.265c1.33,1.565,1.018-1.566-0.156-3.289
					c-1.176-1.722-2.584-3.993-2.584-3.993L837.881,1232.396z"/>
			</g>
			<g>
				<path style="fill:#EAC3A0;" d="M712.549,1242.698c7.734-7.248,12.592-16.874,12.747-25.063
					c0.313-16.23-35.27-40.265-37.144-51.502c-1.872-11.236,1.249-46.506,1.249-46.506l-23.584,16.755
					c0.399,1.535,0.806,3.152,1.217,4.875c0.787,3.309,1.249,6.393,1.998,9.152c13.503,49.746-3.664,57.549-4.289,70.659
					C664.563,1224.882,674.607,1241.325,712.549,1242.698z"/>
			</g>
			<g>
				<path style="fill:#F9DDBF;" d="M703.482,1040.854c0,0-35.695,2.199-48.053,19.433c-17.394,24.261-51.898,127.654-32.124,141.443
					c22.271,15.528,32.413-20.369,38.682-32.905c4.386-8.77,32.721-53.444,32.721-61.685
					C694.708,1098.902,703.482,1040.854,703.482,1040.854z"/>
			</g>
			<g>
				<path style="fill:#FFB27D;" d="M711.641,1223.645c0,0,8.487,2.263,14.14,5.925c2.687,1.741,8.599,1.928,11.039,2.091
					c4.244,0.283,9.731-2.403,14.838-5.69c6.349-4.086,9.465-9.36,3.646-8.676c-6.413,0.755-15.402,0.943-17.855-0.376
					c-2.451-1.321,4.38-4.275,4.275-6.414c-0.125-2.577-0.667-2.145-4.842-0.125c-1.947,0.943-5.594,1.634-8.234,3.144
					c-2.642,1.509-9.054,0.251-9.054,0.251L711.641,1223.645z"/>
			</g>
			<g>
				<path style="fill:#F9DDBF;" d="M636.42,1164.818l84.116,48.369c0,0,2.312,5.009-4.401,15.595c0,0-63.929-9.794-89.978-25.311
					C622.194,1201.111,636.42,1164.818,636.42,1164.818z"/>
			</g>
		</g>
		<g>
			<path style="fill:#FFFFFF;" d="M752.919,1008.354c0,0-0.546,1.482-0.702,2.652c-0.155,1.17-1.248,1.873-4.058,1.873
				c-2.809,0-5.071,0.546-6.398-0.391c-1.326-0.936-2.419-3.589-2.419-3.589S751.125,1007.65,752.919,1008.354z"/>
		</g>
	</g>
	<g>
		<g>
			<path style="fill:#233862;" d="M1017.762,940.01c0,0-24.242-5.776-36.469,12.401c-12.228,18.179-10.794,27.847-10.794,41.17
				c0,13.323,9.341,40.976,36.792,34.824c27.452-6.15,49.893-52.724,40.953-67.692
				C1039.305,945.744,1028.272,940.849,1017.762,940.01z"/>
		</g>
		<g>
			<path style="fill:#FFB27D;" d="M1099.57,1164.399c3.479,9.514,42.964,53.445,42.964,53.445s1.835,1.019-7.539,3.871
				c0,0-45.542-14.264-62.556-34.844c-4.899-5.927-11.004-17.524-11.004-17.524S1095.406,1153.016,1099.57,1164.399z"/>
		</g>
		<g>
			<path style="fill:#F99746;" d="M1101.267,1166.771c0,0,0,2.408-1.5,5.495c-1.69,3.479-5.304,7.816-12.978,10.502
				c-3.736,1.31-8.438,2.236-14.353,2.476c-12.223,0.506-22.027-88.75-22.027-88.75l-13.131-46.28c0,0,29.023,3.756,40.834,22.725
				C1086.809,1086.899,1101.267,1166.771,1101.267,1166.771z"/>
		</g>
		<g>
			<path style="fill:#FFB27D;" d="M1335.613,1491.713c-1.003-0.459-2.007-0.931-3.012-1.402
				c-8.968-4.241-13.838-12.521-20.709-20.264c-6.508-7.333-12.245-30.398-12.245-30.398l-21.992-5.331
				c0,0,5.646,20.773,7.563,29.628c1.126,5.207-0.904,10.94-2.686,15.297c-0.208,0.515-0.418,1.033-0.62,1.555
				c-0.336,0.86,12.137,8.003,27.527,12.611C1327.632,1498.855,1343.585,1495.383,1335.613,1491.713z"/>
		</g>
		<g>
			<path style="fill:#E87E36;" d="M1099.767,1172.266c-1.69,3.479-5.304,7.816-12.978,10.502l-13.005-11.659l-15.529-23.89
				l16.513-27.073C1076.908,1150.114,1096.05,1168.893,1099.767,1172.266z"/>
		</g>
		<g>
			<path style="fill:#233862;" d="M1301.481,1496.968c11.861,0.916,8.205,3.251,24.403,6.646
				c16.197,3.395,22.844-0.881,24.082-3.049c1.103-1.922-6.382-5.182-14.354-8.852l-0.129,0.134c0,0-11.553,3.572-24.666-0.382
				c-10.688-3.219-20.925-9.939-28.286-12.223c-0.962,2.371-1.932,4.798-2.239,7.387
				C1279.412,1493.978,1289.619,1496.051,1301.481,1496.968z"/>
		</g>
		<g>
			<path style="fill:#FFB27D;" d="M1210.825,1498.896c0.431,7.389,70.203,3.765,71.038,1.411c0.747-2.086-7.196-3.973-15.689-6.177
				c-1.068-0.274-2.141-0.563-3.213-0.85c-9.576-2.589-15.832-9.88-23.962-16.287c-7.7-6.068-17.421-27.758-17.421-27.758
				l-22.588-1.363c0,0,9.227,19.449,12.676,27.827c2.027,4.927,1.043,10.929,0.059,15.531
				C1211.197,1493.734,1210.67,1496.294,1210.825,1498.896z"/>
		</g>
		<g>
			<path style="fill:#233862;" d="M1233.505,1505.33c11.838-1.191,8.651,1.752,25.194,2.232s22.329-4.901,23.164-7.255
				c0.747-2.086-7.196-3.973-15.689-6.177l-0.104,0.154c0,0-10.74,5.557-24.345,3.98c-11.089-1.281-22.351-6.089-30-7.034
				c-0.527,2.503-1.055,5.063-0.899,7.665C1211.256,1506.285,1221.668,1506.522,1233.505,1505.33z"/>
		</g>
		<g>
			<path style="fill:#2B478B;" d="M1308.86,1455.296c0,0-2.477,2.488-8.485,3.827c-5.586,1.247-18.418-0.685-18.418-0.685
				s-70.049-83.814-77.072-106.108c-7.018-22.295-22.776-56.833-33.01-56.239c-1.174,0.067-8.437,0.226-19.47,0.396
				c-12.184,0.189-28.97,0.392-47.241,0.508c-53.256,0.343-116.754-1.099-117.623-4.798c-9.763-41.623-5.168-88.211-5.168-88.211
				l79.469-8.148l14.268,24.042c0,0,123.433,17.508,136.496,23.841C1242.063,1257.994,1308.86,1455.296,1308.86,1455.296z"/>
		</g>
		<g>
			<path style="fill:#233862;" d="M1165.773,1296.251l-13.368,0.236c-12.184,0.189-28.97,0.392-47.241,0.508
				c-16.621-16.017-27.772-48.067-17.961-43.165C1100.651,1260.555,1164.55,1296.251,1165.773,1296.251z"/>
		</g>
		<g>
			<path style="fill:#2B478B;" d="M1055.902,1227.062c0,0,106.36,89.856,117.362,106.36
				c11.004,16.505,55.932,125.615,55.932,125.615l-23.84,7.335c0,0-81.604-94.44-85.271-105.443
				c-3.669-11.002-139.341-31.421-139.749-87.253c-0.407-55.831,3.26-66.428,3.26-66.428S1057.5,1228.333,1055.902,1227.062z"/>
		</g>
		<g>
			<path style="fill:#FFB27D;" d="M1142.534,1217.845c1.019,0,18.136,2.038,22.007,7.132s13.245,12.837,9.576,14.06
				c-3.667,1.223-13.651-5.706-16.708-5.706s-10.392,1.223-13.652-2.648s-8.762-8.966-8.762-8.966L1142.534,1217.845z"/>
		</g>
		<g>
			<path style="fill:#FFB27D;" d="M1145.005,1231.904c0,0,8.329,4.585,9.628,6.113s0.993-1.528-0.153-3.21
				c-1.146-1.681-2.521-3.897-2.521-3.897L1145.005,1231.904z"/>
		</g>
		<g>
			<path style="fill:#FFB27D;" d="M961.54,1278.668c0,0,16.657,6.878,17.728,11.31c1.069,4.432,1.223,16.964-3.362,17.269
				c-4.585,0.306-9.323-12.073-12.226-12.073c-2.904,0-10.779,0.878-12.686-3.361c-2.475-5.507-3.973-10.698-3.973-10.698
				S963.067,1278.362,961.54,1278.668z"/>
		</g>
		<g>
			<path style="fill:#FFB27D;" d="M960.625,1277.983c0.382,0.382,10.466,2.596,11.842,2.672c1.375,0.076,2.521,2.444-4.203,2.063
				C961.54,1282.336,960.625,1277.983,960.625,1277.983z"/>
		</g>
		<g>
			<path style="fill:#FFB27D;" d="M947.021,1182.797l14.518,95.871c0,0-2.293,2.037-14.518,2.445c0,0-32.297-80.793-31.889-85.275
				C915.54,1191.355,947.021,1182.797,947.021,1182.797z"/>
		</g>
		<g>
			<path style="fill:#F99746;" d="M998.213,1047.42c0,0-34.834,2.146-46.894,18.965c-16.974,23.674-50.647,124.572-31.349,138.029
				c21.733,15.154,31.631-19.878,37.748-32.111c4.279-8.559,29.337-51.868,29.337-59.908
				C987.056,1104.354,998.213,1047.42,998.213,1047.42z"/>
		</g>
		<g>
			<path style="fill:#F99746;" d="M962.813,1139.258c0.996,1.434,4.448,31.218,10.704,70.89c4.739,30.042,5.213,51.253,5.213,51.253
				s89.08,25.166,121.652-37.977c0,0,0.889-56.649-30.194-73.973c0,0,11.785-38.225-2.374-58.293
				c-14.16-20.068-23.149-38.645-23.149-38.645s-28.691-11.694-66.228-1.689L962.813,1139.258z"/>
		</g>
		<g>
			<path style="fill:#FFB27D;" d="M1035.602,1059.94c-2.747,5.256-10.096,8.499-20.59,4.821
				c-9.811-3.437-16.201-15.55-16.201-15.691c-0.002-6.268,3.433-5.781,1.293-30.768l1.944,0.22l32.695,3.732
				c0,0,0.098,10.186,0.858,19.726C1036.236,1049.99,1037.75,1055.83,1035.602,1059.94z"/>
		</g>
		<g>
			<path style="fill:#ED975D;" d="M1034.743,1022.255c0,0,0.098,10.186,0.858,19.726c-18.046,0.968-28.908-14.675-33.554-23.458
				L1034.743,1022.255z"/>
		</g>
		<g>
			<path style="fill:#FFB27D;" d="M1041.496,1030.794c0,0-42.538,4.195-44.742-22.336c-2.205-26.53-9.181-43.856,17.886-47.657
				c27.065-3.801,33.19,5.885,36.08,14.561C1053.61,984.038,1052.504,1029.02,1041.496,1030.794z"/>
		</g>
		<g>
			<path style="fill:#233862;" d="M1036.938,956.613c0,0-5.356,32.411-29.582,40.102c-17.675,5.611-25.678,1.911-25.678,1.911
				s8.508-11.283,11.53-26.966c0.892-4.622,4.18-8.426,8.652-9.898C1014.419,957.631,1029.637,946.335,1036.938,956.613z"/>
		</g>
		<g>
			<path style="fill:#233862;" d="M1028.923,963.526c0,0,8.015,1.786,15.12,12.131c3.882,5.653,8.379,19.903,7.611,26.212
				c0,0,7.445-29.997-3.41-41.156C1036.732,948.881,1028.923,963.526,1028.923,963.526z"/>
		</g>
		<g>
			<path style="fill:#F99746;" d="M914.917,1194.781l3.023,14.556c0,0,16.246,2.707,33.446-5.733c0,0-2.088-12.565,2.566-22.792
				C958.606,1170.587,914.917,1194.781,914.917,1194.781z"/>
		</g>
		<g>
			<path style="fill:#E87E36;" d="M965.658,1156.564c0,0,15.831-33.563,20.608-28.779c4.778,4.783-11.073,55.236-2.67,79.463
				c8.404,24.228,15.354,53.1,45.326,58.732c0,0-22.275,6.109-61.852-9.181C967.071,1256.8,956.038,1214.484,965.658,1156.564z"/>
		</g>
		<g>
			<path style="fill:#233862;" d="M990.568,950.627c0,0-23.414-6.159-39.659,5.469c-16.246,11.627-9.557,39.206-25.324,54.324
				c-15.768,15.119-9.556,26.014-1.911,37c7.645,10.985-10.034,32.05,22.457,36.859c32.491,4.809,49.693-18.604,44.438-32.461
				c-5.256-13.857-12.424-24.981-3.823-41.398C995.346,994.002,990.568,950.627,990.568,950.627z"/>
		</g>
	</g>
	<g>
		<g>
			<path style="fill:#233862;" d="M2043.891,1505.007h-41.627c0.311-2.184,1.373-8.824,3.32-14.942
				c0.675-2.13,1.463-4.199,2.357-5.996c4.049-8.082,29.764-2.942,29.764-2.942s2.388,2.048,4.253,9.863
				C2042.785,1494.432,2043.512,1499.003,2043.891,1505.007z"/>
		</g>
		<g>
			<path style="fill:#AEC3FF;" d="M1967.473,869.159c0,0-33.171,5.823-40.67,25.402c-7.499,19.58-49.866,335.84-49.866,335.84
				s20.979,16.623,66.014,10.655C1987.983,1235.088,1967.473,869.159,1967.473,869.159z"/>
		</g>
		<g>
			<path style="fill:#233862;" d="M1918.099,1491.869c-0.114,5.663-0.827,11.022-2.882,13.138h-82.337
				c1.046-2.979,4.01-7.46,12.463-8.832c9.605-1.554,24.578-6.179,33.319-15.42c3.115-3.282,5.436-7.156,6.451-11.682
				c3.874-17.248,32.03,5.283,32.03,5.283S1918.28,1483.439,1918.099,1491.869z"/>
		</g>
		<g>
			<path style="fill:#E58435;" d="M1882.64,1483.482c9.203,2.935,26.788,11.896,37.961,7.682
				c7.218-2.721,47.576-119.461,50.194-170.523c0.191-3.712,0.922-8.893,2.066-15.208c2.39-13.178,6.57-31.286,11.386-51.269
				c12.915-53.542,30.384-120.521,30.004-141.93c-0.585-33.229-99.022-6.964-99.022-6.964s-6.772,27.256-8.122,66.718
				c-2.672,78.332-10.022,210.646-30.012,302.533C1876.247,1478.42,1878.824,1482.271,1882.64,1483.482z"/>
		</g>
		<g>
			<path style="fill:#F1A34F;" d="M1950.961,1112.35L2003,1489.509c0,0,22.853,5.511,40.627,1.103
				c0,0,15.235-200.591,13.966-249.086c-1.27-48.494,10.934-129.762-2.785-138.725
				C2041.088,1093.839,1950.961,1112.35,1950.961,1112.35z"/>
		</g>
		<g>
			<path style="fill:#FFFFFF;" d="M2061.386,886.437c0,0-54.688-35.362-93.913-17.277c-6.25,2.882-13.381,10.923-18.484,16.548
				c-14.18,15.623-41.884,263.806-41.884,263.806s78.646,26.637,154.281-9.04V886.437z"/>
		</g>
		<g>
			<path style="fill:#AEC3FF;" d="M1964.361,868.263c0,0-55.364,22.689-62.862,40.122c-7.499,17.434-31.869,124.49-31.869,137.044
				s42.434,2.808,49.265-17.44c5.673-16.813,24.807-68.464,34.896-101.133L1964.361,868.263z"/>
		</g>
		<g>
			<g>
				<path style="fill:#FFB27D;" d="M1975.859,885.551c12.086,2.37,29.84-0.156,42.838-8.725c-5.868-14.017-8.273-25.084-9.13-32.245
					c-0.05-0.381-0.088-0.751-0.126-1.107c-0.386-3.712-0.33-6.231-0.148-7.387h-31.246c0,0-8.543,3.906-8.543,6.606
					c0,1.444-0.013,2.824-0.037,4.143c-0.063,3.594-0.207,6.73-0.395,9.425c-0.594,8.767-1.6,12.897-1.6,12.897
					S1963.654,883.157,1975.859,885.551z"/>
			</g>
			<g>
				<path style="fill:#E2915A;" d="M1969.072,856.262c23.672,4.573,37.414-8.363,40.495-11.681c0.438-0.476,0.662-0.756,0.662-0.756
					c-0.249-0.126-0.512-0.238-0.788-0.351c-8.811-3.568-28.809-0.731-39.975,3.362
					C1969.404,850.431,1969.26,853.567,1969.072,856.262z"/>
			</g>
			<g>
				<path style="fill:#FFB27D;" d="M2017.299,830.952c-4.229,22.767-33.606,22.019-46.301,20.588
					c-3.572-0.398-5.82-0.853-5.82-0.853c-4.029-1.075-6.277-7.42-7.32-15.732c-2.073-16.449,0.546-40.594,3.324-46.769
					c4.182-9.292,12.059-19.342,41.643-12.091C2032.412,783.352,2022.729,801.782,2017.299,830.952z"/>
			</g>
			<g>
				<path style="fill:#233862;" d="M1960.08,775.486c4.043-5.598,12.615-12.438,20.403-16.65
					c16.728-9.051,38.137,0.284,38.227,0.324c24.163,10.623,30.474,29.111,17.663,57.909
					c-13.547,30.453-26.446,27.026-26.446,27.026s2.737-1.703,2.491-11.194c-0.016-0.54-0.037-0.99-0.062-1.379
					c-0.124-1.944,0.562-3.895,2.015-5.192c3.002-2.679,4.465-10.78,1.951-13.036c-3.031-2.721-7.292,0.584-8.653,3.126
					c-1.188,1.795-3.319,2.425-5.302,1.171c-7.521-4.755-2.637-14.264-9.823-20.082c-7.186-5.817-21.769-0.933-32.55-5.569
					C1945.882,786.681,1957.032,779.704,1960.08,775.486z"/>
			</g>
		</g>
		<g>
			<path style="fill:#AEC3FF;" d="M1956.713,1253.638c4.762,1.225,9.475,2.23,14.16,3.006c4.145,0.705,8.268,1.231,12.398,1.58
				c23.404,2.038,46.914-1.256,74.393-9.136c6.187-1.774,12.578-3.787,19.217-6.018c0.705-0.238-1.808-72.897-4.707-147.845
				c-0.293-7.737-0.6-15.505-0.9-23.216c-0.131-3.269-0.256-6.519-0.387-9.762c-2.631-66.285-5.236-126.147-5.787-129.372
				c-1.256-7.292-2.431-13.511-3.712-18.897c-3.743-15.704-8.393-24.315-18.528-31.721c-0.988-0.75-9.094-4.838-16.242-8.393
				c-5.924-2.943-11.187-5.513-11.187-5.513c-0.005,0-0.005,0-0.005,0c-2.357,1.157-5.188,6.556-8.15,14.136
				c-5.442,13.974-11.317,35.372-15.403,51.351c-0.013,0.044-0.021,0.069-0.021,0.081c0,0.006,0,0.006,0,0.006
				c-2.63,10.317-4.517,18.354-5.055,20.66c-0.912,3.894-2.119,11.43-3.537,21.648c-1.925,13.905-4.225,32.777-6.655,54.193
				c-0.251,2.199-0.5,4.432-0.75,6.681c-0.288,2.568-0.581,5.168-0.868,7.793c-0.094,0.843-0.188,1.687-0.275,2.53
				c-0.938,8.48-1.881,17.235-2.818,26.135c-0.781,7.355-11.937,12.673-12.705,20.153c-0.443,4.393-1.371,44.924-2.564,57.86
				C1955.768,1160.815,1956.375,1249.295,1956.713,1253.638z"/>
		</g>
		<g>
			<path style="fill:#9DB0F4;" d="M2037.424,959.599c0.037,0.151,1.897,67.028-48.409,75.152
				c-50.307,8.125-16.882,10.272-16.882,10.272s94.652-4.022,96.215-6.522S2037.424,959.599,2037.424,959.599z"/>
		</g>
		<g>
			<path style="fill:#9DB0F4;" d="M1994.922,1063.461c0,0,0.943,0.668,2.755,1.837c0.031,0.013,0.063,0.037,0.093,0.056
				c7.675,4.899,30.453,18.255,63.618,27.209c3.48,0.944,7.081,1.838,10.786,2.663c-0.293-7.737-0.6-15.505-0.9-23.216
				c4.381-0.344,8.574-0.899,12.469-1.726c-0.133-1.018-0.27-2.036-0.4-3.056c-4.219-1.731-8.412-3.399-12.455-4.98
				c-3.294-1.288-6.48-2.512-9.499-3.649c-13.623-5.175-23.723-8.68-23.723-8.68l-40.325,12.772L1994.922,1063.461z"/>
		</g>
		<g>
			<path style="fill:#AEC3FF;" d="M1984.247,1062.342c0,0,5.181,1.293,13.43,2.956c0.031,0,0.057,0.007,0.088,0.019
				c15.211,3.056,40.782,7.343,63.623,7.111c3.368-0.036,6.681-0.169,9.886-0.418c4.381-0.344,8.574-0.899,12.469-1.726
				c8.349-1.762,15.341-4.743,19.915-9.404c33.978-34.609-18.541-158.818-29.584-170.904c-12.892-14.11-36.421-19.061-49.412-20.761
				c-0.544-0.068-1.063-0.137-1.568-0.199c-4.569-0.544-7.499-0.656-7.662-0.663c-0.005,0-0.005,0-0.005,0s1.018,3.275,2.724,8.831
				c0.663,2.149,1.431,4.643,2.274,7.424c7.98,26.134,23.379,77.497,30.166,106.462c2.486,10.599,3.818,18.197,3.211,20.466
				c-2.649,9.892-30.103,14.98-47.494,17.229c-7.254,0.938-12.76,1.381-13.992,1.475c-0.087,0-0.168,0.006-0.256,0.019l-1.006,4.125
				l-2.406,9.893l-2.368,9.718L1984.247,1062.342z"/>
		</g>
		<g>
			<polygon style="fill:#233862;" points="1889.482,1121.881 2006.174,1116.965 1982.5,971.54 1865.809,976.456 			"/>
		</g>
		<g>
			<path style="fill:#FFB27D;" d="M1992.059,1030.26c0,0-22.716-1.584-23.855,3.711c-2.655,12.342,19.529,22.477,26.717,21.783
				C2002.105,1055.062,1997.286,1029.436,1992.059,1030.26z"/>
		</g>
		<g>
			<path style="fill:#FFB27D;" d="M1872.188,1005.986c0,0,21.733-6.795,24.066-1.907c5.438,11.394-13.8,26.385-20.952,27.373
				C1868.15,1032.44,1866.911,1006.394,1872.188,1005.986z"/>
		</g>
		<g>
			<path style="fill:#9DB0F4;" d="M2013.068,861.05c0,0,10.102,1.764,14.893,8.638c0,0-36.268,64.812-36.107,64.231
				C1992.014,933.336,2003.929,868.994,2013.068,861.05z"/>
		</g>
		<g>
			<path style="fill:#9DB0F4;" d="M1968.577,861.925c-3.146,1.188-9.181,7.368-10.54,10.786l-4.246,54.145
				c0,0,9.066-39.736,13.682-57.696C1968.646,864.594,1968.43,863.206,1968.577,861.925z"/>
		</g>
		<g>
			<path style="fill:#C65447;" d="M1943.816,973.17c0,0-0.922-4.035-6.234-3.567c-5.312,0.47-35.151,1.938-35.151,1.938
				s-5.755-0.096-5.222,3.593L1943.816,973.17z"/>
		</g>
		<g>
			<path style="fill:#FFFFFF;" d="M1978.047,836.088c0,0-3.874,3.53-10.123,2.438c-3.707-0.648-5.781-5.468-5.781-5.468
				S1969.266,831.776,1978.047,836.088z"/>
		</g>
	</g>
	<g>
		<g>
			<g>
				<path style="fill:#7088D6;" d="M465.899,1375.717c0,0-20.941-24.43-1.292-39.947c0,0,14.353-8.689,26.056-7.984
					c0,0-16.583,27.808-11.218,30.573c5.364,2.767,16.243-32.316,16.243-32.316s32.662-3.167,43.169,1.884
					c0,0-27.922,22.849-22.041,24.209c5.88,1.36,36.039-21.066,36.039-21.066s30.398,5.173,28.777,23.717
					c-1.62,18.545-12.096,24.271-16.699,23.777c-4.604-0.492-31.533-10.772-32.119-7.001c-0.587,3.772,15.623,16.1,26.975,16.677
					c0,0-21.431,23.635-35.675,16.813c-14.244-6.82-15.459-17.634-24.339-21.688c-8.878-4.056-16.457-4.046-12.792,0.09
					c3.666,4.137,19.735,8.156,24.813,17.138c5.077,8.981,9.633,15.039-5.105,12.822c-14.735-2.218-38.689-13.001-39.741-25.349
					C465.899,1375.717,465.899,1375.717,465.899,1375.717z"/>
			</g>
			<g>
				<g>
					<path style="fill:#7088D6;" d="M566.696,1355.286c0,0-82.565-3.182-100.797,20.431c0,0-4.033,12.077-16.441,23.074
						l-1.935,5.271c0,0,14.308-15.085,19.427-15.998C466.95,1388.064,458.944,1358.812,566.696,1355.286z"/>
				</g>
				<g>
					<path style="fill:#7088D6;" d="M449.458,1398.791c0,0-17.723,13.106-18.953,36.524l3.216,0.288c0,0,5.66-24.214,15.891-33.684
						C459.842,1392.45,449.458,1398.791,449.458,1398.791z"/>
				</g>
			</g>
		</g>
		<g>
			<g>
				<path style="fill:#9AB4EF;" d="M392.685,1344.993c0,0,33.309-18.653,17.766-43.97c0,0-12.437-15.545-25.761-19.543
					c0,0,7.106,37.753,0,38.642c-7.106,0.889-4.886-42.639-4.886-42.639s-35.087-16.877-48.855-15.544
					c0,0,21.763,36.863,14.656,35.975c-7.106-0.888-31.534-38.196-31.534-38.196s-35.976-6.661-41.75,14.657
					c-5.774,21.319,3.553,31.979,8.883,33.311c5.33,1.332,39.529,0.889,38.641,5.33c-0.889,4.441-23.984,11.547-36.864,7.55
					c0,0,14.212,35.088,32.867,33.311c18.654-1.776,24.427-13.323,35.975-14.212c11.547-0.888,19.987,2.221,14.213,5.329
					c-5.774,3.109-25.316,1.019-34.643,8.948c-9.327,7.93-16.877,12.815,0.444,16.368c17.322,3.554,48.412,1.332,54.629-11.991
					C392.685,1344.993,392.685,1344.993,392.685,1344.993z"/>
			</g>
			<g>
				<g>
					<path style="fill:#88A8E2;" d="M288.755,1281.037c0,0,93.27,30.202,103.93,63.956c0,0-0.444,15.101,8.883,32.423v6.662
						c0,0-9.771-22.651-15.102-25.76C386.466,1358.318,407.341,1329.005,288.755,1281.037z"/>
				</g>
				<g>
					<path style="fill:#88A8E2;" d="M401.567,1377.416c0,0,14.383,21.843,6.183,48.432l-3.7-0.995c0,0,3.592-29.285-3.934-44.015
						C392.591,1366.109,401.567,1377.416,401.567,1377.416z"/>
				</g>
			</g>
		</g>
		<g>
			<g>
				<path style="fill:#9AB4EF;" d="M445.679,1319.268c0,0-43.909-24.59-23.419-57.961c0,0,16.393-20.492,33.957-25.761
					c0,0-9.367,49.765,0,50.936c9.368,1.171,6.44-56.204,6.44-56.204s46.252-22.248,64.4-20.492c0,0-28.687,48.594-19.32,47.423
					c9.367-1.171,41.568-50.35,41.568-50.35s47.422-8.782,55.034,19.32c7.61,28.103-4.685,42.153-11.711,43.91
					c-7.024,1.756-52.106,1.171-50.934,7.024c1.17,5.855,31.614,15.223,48.593,9.953c0,0-18.734,46.252-43.325,43.91
					c-24.589-2.342-32.199-17.564-47.422-18.734c-15.222-1.171-26.346,2.927-18.735,7.025c7.612,4.098,33.372,1.343,45.667,11.795
					c12.294,10.452,22.248,16.893-0.586,21.576c-22.833,4.684-63.814,1.756-72.012-15.808
					C445.679,1319.268,445.679,1319.268,445.679,1319.268z"/>
			</g>
			<g>
				<g>
					<path style="fill:#85A6E0;" d="M582.677,1234.961c0,0-122.947,39.812-136.998,84.307c0,0,0.586,19.905-11.709,42.738v8.782
						c0,0,12.88-29.858,19.905-33.957C453.875,1336.831,426.358,1298.191,582.677,1234.961z"/>
				</g>
				<g>
					<path style="fill:#85A6E0;" d="M433.97,1362.006c0,0-18.961,28.793-8.151,63.842l4.878-1.312c0,0-4.735-38.603,5.185-58.019
						C445.801,1347.102,433.97,1362.006,433.97,1362.006z"/>
				</g>
			</g>
		</g>
		<g>
			<path style="fill:#AEC3FF;" d="M444.199,1501.851c47.503,0,86.012-38.509,86.012-86.012H358.187
				C358.187,1463.342,396.696,1501.851,444.199,1501.851z"/>
		</g>
		<g>
			<path style="fill:#AEC3FF;" d="M531.398,1506.228H356.999l0,0c0-5.86,4.751-10.611,10.612-10.611h153.176
				C526.647,1495.616,531.398,1500.367,531.398,1506.228L531.398,1506.228z"/>
		</g>
		<g>
			<rect x="355.358" y="1415.839" style="fill:#BBD0FF;" width="176.81" height="2.638"/>
		</g>
	</g>
	<g>
		<path style="fill:#2E3552;" d="M2660.342,1511.502H132.43c-1.567,0-2.85-1.282-2.85-2.851v-0.924c0-1.567,1.282-2.85,2.85-2.85
			h2527.912c1.566,0,2.85,1.282,2.85,2.85v0.924C2663.191,1510.22,2661.908,1511.502,2660.342,1511.502z"/>
	</g>
	<g>
		<g>
			
				<rect x="1516.877" y="1062.673" transform="matrix(0.283 -0.9591 0.9591 0.283 80.6325 2236.2629)" style="fill:#2B478B;" width="38.343" height="3.054"/>
		</g>
		<g>
			<path style="fill:#163560;" d="M1588.629,865.63c0,0,2.482,23.408-25.982,27.479c-28.464,4.07-23.704,18.81-25.575,26.451
				c-1.872,7.642-35.441,5.097-39.519,34.61c-4.078,29.514,20.918,46.665,39.519,43.381c18.601-3.286,118.593-57.629,118.593-57.629
				s23.54-14.852,2.932-31.82c-12.028-9.903,4.333-32.803-16.537-37.383C1621.187,866.139,1588.629,865.63,1588.629,865.63z"/>
		</g>
		<g>
			<path style="fill:#163560;" d="M1633.681,803.212c0,0-24.02-7.802-41.659,5.089c-17.64,12.891-18.658,35.449-15.943,47.49
				c1.962,8.707,13.057,23.069,28.069,13.911c15.012-9.161,45.543-2.036,45.543-2.036S1684.292,823.65,1633.681,803.212z"/>
		</g>
		<g>
			<path style="fill:#FFB27D;" d="M1652.584,913.673c0,0,12.373,3.367,24.584,27.529c12.213,24.163,26.46,70.976,36.638,73.012
				c10.177,2.036,54.143-12.721,54.143-12.721l4.714,11.872c0,0-36.479,33.924-69.034,32.398
				c-29.519-1.385-47.964-47.832-47.964-47.832L1652.584,913.673z"/>
		</g>
		<g>
			<path style="fill:#FFB27D;" d="M1538.08,1507.398c0,0-20.853,0-26.389,0c-5.525,0-11.684-5.455-13.22-15.438
				c-1.536-9.993-12.914-15.449-15.367-23.62c-1.608-5.333,3.206-12.102,6.747-16.142c1.883-2.157,3.399-3.541,3.399-3.541
				l4.304-5.445l20.904,4.845c0,0,1.537,14.533,0.927,25.432c-0.499,8.772,1.811,18.085,7.855,22.492
				c1.467,1.068,3.155,1.852,5.079,2.27C1542.161,1500.366,1538.08,1507.398,1538.08,1507.398z"/>
		</g>
		<g>
			<path style="fill:#FFB27D;" d="M1671.774,1504.864l-70.821,0.143c-1.821-0.896-2.554-6.747-2.717-14.217
				c-0.062-2.697-0.041-5.618,0.021-8.579c0.306-13.779-2.025-30.013-2.025-30.013s28.79-8.427,27.681,6.747
				c-1.72,23.611,16.497,31.488,29.31,34.531c2.718,0.651,5.19,1.079,7.175,1.395
				C1671.774,1496.692,1671.774,1504.864,1671.774,1504.864z"/>
		</g>
		<g>
			<path style="fill:#FFB27D;" d="M1657.785,1053.567c0,0,14.336,32.389,15.648,54.029c1.312,21.641-52.238,329.639-49.613,359.35
				c0.837,9.485-25.183-0.979-25.183-0.979s-29.854-153.062-6.059-276.63c13.893-72.145,9.952-135.771,9.952-135.771H1657.785z"/>
		</g>
		<g>
			<path style="fill:#FFB27D;" d="M1571.267,1051.672c0,0-31.15,41.795-34.055,70.048c-2.903,28.253,7.894,122.428,1.706,149.971
				c-4.869,21.68-20.169,37.976-29.669,96.172c-2.569,15.737-6.869,46.813-11.696,75.349c0,0,18.162,10.373,20.908,4.844
				c15.368-30.941,74.782-144.964,77.292-165.679c1.776-14.66,18.948-99.495,52.663-156.427c8.095-13.669-4.967-68.023-4.967-68.023
				L1571.267,1051.672z"/>
		</g>
		<g>
			<path style="fill:#F99746;" d="M1693.279,1060.051c0,0,0,0.071-0.012,0.203c1.202,22.146-8.426,37.197-8.976,41.482
				c-2.666,45.256-3.186,168.102-2.035,188.272c1.354,23.743,0.509,52.238,0.509,52.238c-31.985-0.937-80.225-12.884-114.154-11.53
				c-33.92,1.354-53.592-14.064-53.592-14.064s22.002-38.123,17.637-111.448c-4.366-73.325,5.088-100.415,14.756-128.402
				c9.668-27.986,0-53.632,0-53.632l6.931,1.75c-3.907-6.564-8.457-15.193-8.884-22.359c-1.049-17.859,0-32.738,0-32.738
				l24.983-54.509c47.649-17.371,82.139-1.638,82.139-1.638s11.521,20.486,19.071,49.999c2.564,10.065,9.332,27.132,0.315,35.213
				c0,0,0,0.01-0.01,0.021c-4.509,9.291-0.071,15.469,5.903,23.193c0.01,0.019,0.03,0.03,0.04,0.05
				c6.635,8.59,15.153,19.093,15.366,37.899H1693.279z"/>
		</g>
		<g>
			<g>
				<path style="fill:#FFB27D;" d="M1597.527,914.832c-3.014-3.238-1.409-6.341,0.937-11.398c2.827-6.092,6.331-14.795,6.932-26.327
					l0.825,0.047l31.032,7.331c0,0-1.209,8.821-1.698,17.167c-0.004,0.069-0.009,0.139-0.012,0.207
					c-0.445,7.247-0.084,15.91-3.48,18.915C1619.864,931.568,1601.533,919.136,1597.527,914.832z"/>
			</g>
			<g>
				<path style="fill:#E8945B;" d="M1637.253,884.484c0,0-1.21,8.821-1.698,17.167c-17.516-1.427-25.594-13.724-28.946-21.903
					L1637.253,884.484z"/>
			</g>
		</g>
		<g>
			<path style="fill:#FFB27D;" d="M1642.758,890.31c0,0-41.438,3.317-43.105-22.519c-1.67-25.837-8.142-42.81,18.245-46.02
				c26.386-3.211,32.168,6.315,34.822,14.804C1655.375,845.065,1653.494,888.781,1642.758,890.31z"/>
		</g>
		<g>
			<path style="fill:#163560;" d="M1636.749,819.94c0,0-9.433,31.033-26.578,36.623c-17.146,5.588-25.003,1.398-25.003,1.398
				s12.696-11.47,14.293-30.185C1599.461,827.775,1627.267,806.055,1636.749,819.94z"/>
		</g>
		<g>
			<path style="fill:#163560;" d="M1634.091,822.579c0,0,8.621,2.613,12.478,8.535c3.771,5.791,7.164,13.563,7.113,23.365
				c0,0,7.249-21.148-3.107-32.191C1639.593,810.576,1634.091,822.579,1634.091,822.579z"/>
		</g>
		<g>
			<path style="fill:#FFFFFF;" d="M1633.681,875.486c0,0,0.91,3,8.456,2.05c0,0,6.334-0.798,5.928-4.132
				C1648.064,873.404,1641.746,871.415,1633.681,875.486z"/>
		</g>
		<g>
			<path style="fill:#FFB27D;" d="M1772.662,1013.365c0,0,4.495-1.188,12.637,1.358c8.141,2.544,18.826,1.058,24.424-1.634
				c5.598-2.691,17.047-12.106,13.484-12.868c-3.562-0.764-20.867,4.325-24.935,1.273c-4.069-3.054-7.377-6.108-13.483-4.835
				c-6.105,1.273-16.841,4.835-16.841,4.835L1772.662,1013.365z"/>
		</g>
		<g>
			<path style="fill:#FFB27D;" d="M1786.688,996.396c0,0,13.24-3.173,15.148-3.936c1.908-0.764,1.272,2.148-2.29,3.936
				s-2.926,6.368-2.926,6.368L1786.688,996.396z"/>
		</g>
		<g>
			<path style="fill:#F99746;" d="M1645.064,911.081c0,0,18.62,3.907,31.595,22.225c12.976,18.319,17.811,31.549,17.811,31.549
				s-6.749,13.491-27.418,14.887C1646.383,981.139,1645.064,911.081,1645.064,911.081z"/>
		</g>
		<g>
			<path style="fill:#E87E36;" d="M1677.861,1022.102c-10.178-11.867-37.503-13.485-40.719-16.202c-3.227-2.708,0-3.135,0-3.135
				c26.48,5.709,34.449-3.419,34.815-3.856C1667.449,1008.199,1671.887,1014.377,1677.861,1022.102z"/>
		</g>
		<g>
			<path style="fill:#2B478B;" d="M1538.08,1507.398c0,0-20.853,0-26.389,0c-5.525,0-11.684-5.455-13.22-15.438
				c-1.536-9.993-12.914-15.449-15.367-23.62c-1.608-5.333,3.206-12.102,6.747-16.142c0,0,11.256,17.179,13.291,31.937
				c1.853,13.402,10.829,13.789,24.099,11.846c1.467,1.068,3.155,1.852,5.079,2.27
				C1542.161,1500.366,1538.08,1507.398,1538.08,1507.398z"/>
		</g>
		<g>
			<path style="fill:#2B478B;" d="M1671.774,1504.864l-70.821,0.143c-1.821-0.896-2.554-6.747-2.717-14.217v-0.041
				c0,0,12.781,2.798,28.302,7.887c8.915,2.921,18.156-1.628,26.684-5.159c2.718,0.651,5.19,1.079,7.175,1.395
				C1671.774,1496.692,1671.774,1504.864,1671.774,1504.864z"/>
		</g>
		<g>
			<g>
				<path style="fill:#2B478B;" d="M1585.053,1134.82l-65.891-11.613c-3.459-0.609-5.768-3.907-5.158-7.365l5.38-30.521
					c0.609-3.458,3.907-5.767,7.365-5.157l65.89,11.613c3.458,0.609,5.768,3.907,5.158,7.366l-5.379,30.52
					C1591.808,1133.121,1588.51,1135.43,1585.053,1134.82z"/>
			</g>
			<g>
				<polygon style="fill:#163560;" points="1555.333,1110.716 1555.212,1110.659 1517.89,1093.058 1518.306,1092.172 
					1555.508,1109.717 1596.466,1105.949 1596.556,1106.924 				"/>
			</g>
			<g>
				<path style="fill:#163560;" d="M1554.634,1113.35L1554.634,1113.35c-1.3-0.229-2.175-1.479-1.946-2.778l0.346-1.957
					c0.228-1.299,1.479-2.175,2.778-1.946l0,0c1.3,0.229,2.175,1.48,1.946,2.779l-0.345,1.957
					C1557.184,1112.703,1555.933,1113.579,1554.634,1113.35z"/>
			</g>
		</g>
		<g>
			<path style="fill:#2B478B;" d="M1592.641,1093.303c-0.066,0-0.136-0.004-0.204-0.013c-0.836-0.112-1.422-0.881-1.311-1.716
				c0.197-1.464,19.37-146.721-6.092-181.104c-0.502-0.678-0.359-1.634,0.318-2.135c0.677-0.502,1.633-0.361,2.135,0.317
				c26.194,35.374,7.475,177.304,6.665,183.327C1594.048,1092.747,1593.394,1093.303,1592.641,1093.303z"/>
		</g>
		<g>
			<path style="fill:#FFB27D;" d="M1596.729,1069.182l10.052-2.132c0,0,5.875-0.292,8.771,1.189s10.567,2.686,10.389,3.945
				c-0.18,1.261-9.604,3.676-9.604,3.676l-0.256-0.152c2.045,8.104,17.957,15.24,18.291,18.144c0.404,3.518-7.635,3.934-12.032,4.26
				c-4.397,0.327-14.715-1.534-18.896-7.774c-3.056-4.563-8.437-11.036-8.437-11.036L1596.729,1069.182z"/>
		</g>
		<g>
			<path style="fill:#FFB27D;" d="M1578.452,913.673c0,0-18.573-1.013-32.312,26.759c-13.183,26.646-33.559,73.75-29.09,89.447
				c2.127,7.47,22.729,26.739,77.957,49.422c0,0,13.901-7.024,7.846-11.418c0,0-53.53-47.959-52.871-51.94
				c0.84-5.063,4.809-25.898,38.393-65.335C1597.171,940.278,1578.452,913.673,1578.452,913.673z"/>
		</g>
		<g>
			<path style="fill:#F99746;" d="M1583.658,911.215c0,0-24.288,1.993-38.789,21.838l-14.249,24.17c0,0,4.325,19.846,34.093,29.259
				l18.09-18.868c11.154-11.635,13.137-27.531,7.269-42.543L1583.658,911.215z"/>
		</g>
	</g>
</g>
</svg>
