<?xml version="1.0" encoding="utf-8"?>
<!-- Generator: Adobe Illustrator 27.5.0, SVG Export Plug-In . SVG Version: 6.00 Build 0)  -->
<svg version="1.1" xmlns="http://www.w3.org/2000/svg" xmlns:xlink="http://www.w3.org/1999/xlink" x="0px" y="0px"
	 viewBox="0 0 750 500" style="enable-background:new 0 0 750 500;" xml:space="preserve">
<g id="Background_complete">
	<g>
		<g>
			<g>
				<g>
					<g>
						<g>
							<path style="fill:#E0E0E0;" d="M673.734,299.783H492.988c-3.232,0-5.862-2.63-5.862-5.862V30.647
								c0-3.232,2.63-5.862,5.862-5.862h180.746c3.232,0,5.862,2.629,5.862,5.862v263.273
								C679.596,297.153,676.966,299.783,673.734,299.783z M492.988,25.035c-3.095,0-5.612,2.517-5.612,5.612v263.273
								c0,3.095,2.518,5.612,5.612,5.612h180.746c3.095,0,5.612-2.518,5.612-5.612V30.647c0-3.094-2.518-5.612-5.612-5.612H492.988z
								"/>
						</g>
					</g>
					<g>
						<g>
							<path style="fill:#E0E0E0;" d="M465.306,299.783H284.56c-3.232,0-5.862-2.63-5.862-5.862V30.647
								c0-3.232,2.629-5.862,5.862-5.862h180.747c3.232,0,5.862,2.629,5.862,5.862v263.273
								C471.168,297.153,468.538,299.783,465.306,299.783z M284.56,25.035c-3.094,0-5.612,2.517-5.612,5.612v263.273
								c0,3.095,2.518,5.612,5.612,5.612h180.747c3.095,0,5.612-2.518,5.612-5.612V30.647c0-3.094-2.518-5.612-5.612-5.612H284.56z"
								/>
						</g>
					</g>
				</g>
				<g>
					<g>
						<g>
							<path style="fill:#E0E0E0;" d="M257.012,299.783H76.266c-3.232,0-5.862-2.63-5.862-5.862V30.647
								c0-3.232,2.629-5.862,5.862-5.862h180.746c3.232,0,5.862,2.629,5.862,5.862v263.273
								C262.875,297.153,260.245,299.783,257.012,299.783z M76.266,25.035c-3.094,0-5.612,2.517-5.612,5.612v263.273
								c0,3.095,2.518,5.612,5.612,5.612h180.746c3.095,0,5.612-2.518,5.612-5.612V30.647c0-3.094-2.518-5.612-5.612-5.612H76.266z"
								/>
						</g>
					</g>
				</g>
			</g>
			<g>
				<g>
					<rect y="360.852" style="fill:#E0E0E0;" width="750" height="0.12"/>
				</g>
			</g>
		</g>
		<g>
			<rect x="653.626" y="390.228" style="fill:#EBEBEB;" width="55.729" height="0.421"/>
			<rect x="495.044" y="394.794" style="fill:#EBEBEB;" width="14.627" height="0.421"/>
			<rect x="40.645" y="377.431" style="fill:#EBEBEB;" width="72.674" height="0.421"/>
			<rect x="128.299" y="377.431" style="fill:#EBEBEB;" width="10.656" height="0.421"/>
			<rect x="173.586" y="384.535" style="fill:#EBEBEB;" width="157.613" height="0.421"/>
		</g>
	</g>
	<rect x="30.362" y="245.714" style="fill:#F5F5F5;" width="699.822" height="205.148"/>
	<rect x="67.093" y="244.746" style="fill:#E6E6E6;" width="26.929" height="206.116"/>
	<rect x="120.141" y="244.746" style="fill:#E6E6E6;" width="26.929" height="206.116"/>
	<rect x="173.19" y="244.746" style="fill:#E6E6E6;" width="26.929" height="206.116"/>
	<rect x="226.238" y="244.746" style="fill:#E6E6E6;" width="26.929" height="206.116"/>
	<rect x="279.287" y="244.746" style="fill:#E6E6E6;" width="26.929" height="206.116"/>
	<rect x="332.335" y="244.746" style="fill:#E6E6E6;" width="26.929" height="206.116"/>
	<rect x="385.384" y="244.746" style="fill:#E6E6E6;" width="26.929" height="206.116"/>
	<rect x="438.432" y="244.746" style="fill:#E6E6E6;" width="26.929" height="206.116"/>
	<rect x="491.481" y="244.746" style="fill:#E6E6E6;" width="26.929" height="206.116"/>
	<rect x="544.529" y="244.746" style="fill:#E6E6E6;" width="26.929" height="206.116"/>
	<rect x="597.578" y="244.746" style="fill:#E6E6E6;" width="26.929" height="206.116"/>
	<rect x="650.626" y="244.746" style="fill:#E6E6E6;" width="26.929" height="206.116"/>
	<rect x="703.674" y="244.746" style="fill:#E6E6E6;" width="26.929" height="206.116"/>
	<rect x="30.362" y="437.413" style="fill:#E6E6E6;" width="699.822" height="14.449"/>
</g>
<g id="Background_simple" style="display:none;">
	<g style="display:inline;">
		<path style="fill:#407BFF;" d="M363.873,72.056c-32.864,2.847-64.554,8.907-92.66,18.413
			c-33.127,11.204-66.974,28.659-56.977,51.49c18.456,42.149,106.995,42.917,89.317,71.257
			c-20.024,32.101-6.595,69.757,83.256,80.228c170.661,19.889,376.964-96.484,319.021-160.43
			C669.757,93.204,538.372,56.941,363.873,72.056z"/>
		<path style="opacity:0.9;fill:#FFFFFF;" d="M363.873,72.056c-32.864,2.847-64.554,8.907-92.66,18.413
			c-33.127,11.204-66.974,28.659-56.977,51.49c18.456,42.149,106.995,42.917,89.317,71.257
			c-20.024,32.101-6.595,69.757,83.256,80.228c170.661,19.889,376.964-96.484,319.021-160.43
			C669.757,93.204,538.372,56.941,363.873,72.056z"/>
	</g>
	<circle style="display:inline;fill:#407BFF;" cx="85.661" cy="75.474" r="36.244"/>
	<circle style="display:inline;opacity:0.9;fill:#FFFFFF;" cx="85.661" cy="75.474" r="36.244"/>
</g>
<g id="Shadow_2">
	<g>
		<g>
			<path style="fill:#F5F5F5;" d="M726.377,464.312c0,5.754-68.997,10.418-154.109,10.418s-154.109-4.664-154.109-10.418
				c0-5.754,68.997-10.418,154.109-10.418S726.377,458.559,726.377,464.312z"/>
		</g>
	</g>
</g>
<g id="Pictures">
	<g>
		<rect x="128.527" y="63.988" style="fill:#263238;" width="73.995" height="117.58"/>
		<rect x="134.091" y="69.471" style="opacity:0.6;fill:#FFFFFF;enable-background:new    ;" width="62.867" height="106.614"/>
		<rect x="138.247" y="73.313" style="fill:#FFFFFF;" width="54.556" height="98.93"/>
		<rect x="150.784" y="86.289" style="fill:#407BFF;" width="30.213" height="71.843"/>
		<rect x="150.784" y="86.289" style="opacity:0.6;fill:#FFFFFF;enable-background:new    ;" width="30.213" height="71.843"/>
		<path style="opacity:0.6;fill:#FFFFFF;enable-background:new    ;" d="M141.439,75.474c0,0-0.975,71.763,0.487,71.52
			c1.462-0.244,38.914-70.662,39.072-71.393L141.439,75.474z"/>
	</g>
	<g>
		<rect x="343.276" y="63.988" style="fill:#263238;" width="73.995" height="117.58"/>
		<rect x="348.84" y="69.471" style="opacity:0.6;fill:#FFFFFF;enable-background:new    ;" width="62.867" height="106.614"/>
		<rect x="352.996" y="73.313" style="fill:#FFFFFF;" width="54.556" height="98.93"/>
		<rect x="365.533" y="86.289" style="fill:#407BFF;" width="30.213" height="71.843"/>
		<rect x="365.533" y="86.289" style="opacity:0.6;fill:#FFFFFF;enable-background:new    ;" width="30.213" height="71.843"/>
		<path style="opacity:0.6;fill:#FFFFFF;enable-background:new    ;" d="M356.188,75.474c0,0-0.975,71.763,0.487,71.52
			c1.462-0.244,38.914-70.662,39.072-71.393L356.188,75.474z"/>
	</g>
	<g>
		<g>
			<rect x="514.237" y="89.31" style="fill:#263238;" width="150.911" height="118.853"/>
			<rect x="521.958" y="97.229" style="opacity:0.9;fill:#FFFFFF;enable-background:new    ;" width="135.216" height="103.014"/>
			<polygon style="opacity:0.2;" points="514.237,89.31 521.958,97.229 657.174,97.229 665.147,89.31 			"/>
			<polygon style="opacity:0.2;" points="665.147,208.163 657.426,200.243 522.21,200.243 514.237,208.163 			"/>
			<rect x="529.243" y="106.284" style="fill:#FFFFFF;" width="121.087" height="86.345"/>
			<rect x="549.902" y="122.778" style="fill:#407BFF;" width="84.492" height="51.916"/>
			<rect x="549.902" y="122.778" style="opacity:0.6;fill:#FFFFFF;enable-background:new    ;" width="84.492" height="51.916"/>
			<polygon style="opacity:0.2;" points="521.958,200.243 521.958,97.229 657.174,97.229 657.174,100.265 526.048,100.716 
				525.414,200.187 			"/>
		</g>
		<path style="opacity:0.3;fill:#FFFFFF;enable-background:new    ;" d="M634.394,110.9l-93.284,51.223
			c-3.458,1.899-7.686-0.603-7.686-4.548v-41.486c0-2.866,2.323-5.189,5.189-5.189H634.394L634.394,110.9z"/>
	</g>
</g>
<g id="Lamp">
	<rect x="550.833" y="48.521" style="fill:#263238;" width="80.987" height="6.089"/>
	<rect x="589.692" y="39.12" style="fill:#263238;" width="3.269" height="12.446"/>
	<path style="fill:#263238;" d="M597.09,39.579c0,3.183-2.58,5.763-5.763,5.763c-3.183,0-5.763-2.58-5.763-5.763
		s2.58-5.763,5.763-5.763C594.51,33.816,597.09,36.396,597.09,39.579z"/>
	<polygon style="opacity:0.2;fill:#407BFF;enable-background:new    ;" points="550.833,54.61 516.619,91.753 662.955,91.488 
		631.82,54.61 	"/>
</g>
<g id="Table">
	<g>
		<g>
			<polygon style="fill:#263238;" points="401.72,386.089 369.936,386.089 367.646,348.567 405.818,348.567 			"/>
			<polygon style="opacity:0.2;fill:#FFFFFF;enable-background:new    ;" points="401.72,386.089 369.936,386.089 367.646,348.567 
				405.818,348.567 			"/>
			<path style="opacity:0.1;fill:#FFFFFF;enable-background:new    ;" d="M369.717,377.354c-0.343-0.474,11.278-11.31,13.159-5.156
				c1.881,6.154,21.341-6.154,21.341-6.154l-1.153,5.655c0,0-15.3,9.314-18.882,6.986c-3.583-2.328-4.138-6.577-6.65-4.415
				c-2.512,2.162-7.814,8.225-7.814,8.225V377.354z"/>
			<g>
				<path style="fill:#407BFF;" d="M381.696,339.223c1.816,5.394,1.035,11.6-2.063,16.375c-3.098,4.775-8.446,8.019-14.112,8.559
					c-2.749,0.262-5.896-0.279-7.475-2.545c-1.735-2.488-1.559-9.111-0.296-11.869c2.811-6.137,5.892-8.104,11.388-12.023
					c1.654-1.18,5.591-2.481,7.622-2.451c2.031,0.03,3.857,1.234,4.433,2.75L381.696,339.223z"/>
			</g>
			<g style="opacity:0.4;enable-background:new    ;">
				<path style="fill:#FFFFFF;" d="M381.696,339.223c1.816,5.394,1.035,11.6-2.063,16.375c-3.098,4.775-8.446,8.019-14.112,8.559
					c-2.749,0.262-5.896-0.279-7.475-2.545c-1.735-2.488-1.559-9.111-0.296-11.869c2.811-6.137,5.892-8.104,11.388-12.023
					c1.654-1.18,5.591-2.481,7.622-2.451c2.031,0.03,3.857,1.234,4.433,2.75L381.696,339.223z"/>
			</g>
			<g>
				<path style="fill:#407BFF;" d="M389.278,344.503c-1.663,4.938-0.947,10.618,1.888,14.989c2.835,4.371,7.731,7.34,12.917,7.834
					c2.517,0.24,5.397-0.256,6.842-2.329c1.588-2.278,1.427-8.34,0.271-10.864c-2.573-5.617-5.393-7.417-10.423-11.004
					c-1.514-1.08-5.118-2.271-6.977-2.244c-1.859,0.027-3.53,1.129-4.058,2.517L389.278,344.503z"/>
			</g>
			<g>
				<path style="fill:#407BFF;" d="M389.6,329.796c0.362-5.68,3.435-11.128,8.111-14.374c4.675-3.246,10.854-4.223,16.302-2.577
					c2.644,0.799,5.351,2.491,5.955,5.186c0.663,2.96-2.008,9.023-4.221,11.097c-4.926,4.615-8.522,5.269-15.092,6.815
					c-1.978,0.465-6.114,0.179-7.983-0.618c-1.869-0.797-3.102-2.602-3.061-4.224L389.6,329.796z"/>
			</g>
			<g style="opacity:0.4;enable-background:new    ;">
				<path style="fill:#FFFFFF;" d="M389.6,329.796c0.362-5.68,3.435-11.128,8.111-14.374c4.675-3.246,10.854-4.223,16.302-2.577
					c2.644,0.799,5.351,2.491,5.955,5.186c0.663,2.96-2.008,9.023-4.221,11.097c-4.926,4.615-8.522,5.269-15.092,6.815
					c-1.978,0.465-6.114,0.179-7.983-0.618c-1.869-0.797-3.102-2.602-3.061-4.224L389.6,329.796z"/>
			</g>
			<g>
				<path style="fill:#407BFF;" d="M385.035,326.369c-0.436-6.85-4.143-13.419-9.78-17.334c-5.638-3.915-13.088-5.093-19.659-3.108
					c-3.188,0.963-6.453,3.004-7.181,6.254c-0.799,3.569,2.421,10.88,5.09,13.381c5.94,5.565,10.277,6.354,18.2,8.218
					c2.385,0.561,7.373,0.216,9.627-0.745c2.254-0.961,3.741-3.138,3.692-5.094L385.035,326.369z"/>
			</g>
			<g style="opacity:0.2;enable-background:new    ;">
				<path style="fill:#FFFFFF;" d="M385.035,326.369c-0.436-6.85-4.143-13.419-9.78-17.334c-5.638-3.915-13.088-5.093-19.659-3.108
					c-3.188,0.963-6.453,3.004-7.181,6.254c-0.799,3.569,2.421,10.88,5.09,13.381c5.94,5.565,10.277,6.354,18.2,8.218
					c2.385,0.561,7.373,0.216,9.627-0.745c2.254-0.961,3.741-3.138,3.692-5.094L385.035,326.369z"/>
			</g>
			<path style="fill:#263238;" d="M359.678,362.283c4.529-10.283,11.738-19.245,20.845-25.834c0.491-0.355,0.017-1.181-0.48-0.821
				c-9.238,6.684-16.588,15.736-21.186,26.175C358.613,362.358,359.432,362.843,359.678,362.283L359.678,362.283z"/>
			<path style="fill:#263238;" d="M379.947,336.375c1.064,1.332,2.034,2.749,2.916,4.208c0.901,1.491,1.828,3.11,2.147,4.844
				c0.111,0.601,1.027,0.346,0.917-0.253c-0.333-1.808-1.304-3.516-2.243-5.071c-0.924-1.53-1.95-3.004-3.065-4.4
				C380.238,335.225,379.569,335.901,379.947,336.375L379.947,336.375z"/>
			<path style="fill:#263238;" d="M391.227,341.838c6.884,6.688,12.511,14.554,16.626,23.225c0.262,0.552,1.082,0.07,0.821-0.48
				c-4.147-8.738-9.838-16.677-16.775-23.417C391.46,340.739,390.787,341.411,391.227,341.838L391.227,341.838z"/>
			<path style="fill:#263238;" d="M387.207,349.888c0.404-8.554,4.151-17.606,10.974-23.028c5.962-4.738,13.84-7.928,21.339-9.102
				c0.603-0.094,0.347-1.011-0.253-0.917c-7.77,1.216-15.994,4.6-22.088,9.613c-6.806,5.598-10.515,14.785-10.923,23.434
				C386.228,350.499,387.179,350.498,387.207,349.888L387.207,349.888z"/>
			<path style="fill:#263238;" d="M348.337,311.869c11.189,1.686,21.764,6.762,30.034,14.498c0.977,0.914,1.921,1.861,2.829,2.843
				c0.61,0.66,1.814,1.638,2.167,2.378c0.268,0.563,0.193,1.581,0.268,2.191c0.383,3.134,0.766,6.268,1.149,9.402
				c0.286,2.343,0.572,4.685,0.859,7.028c0.073,0.594,0.923,0.628,0.951,0c0.114-2.612,1.257-8.621,4.817-8.423
				c0.611,0.034,0.609-0.917,0-0.951c-4.238-0.236-5.63,6.217-5.768,9.374c0.317,0,0.634,0,0.951,0
				c-0.66-5.405-1.321-10.81-1.981-16.215c-0.093-0.76-0.069-1.671-0.294-2.406c-0.143-0.47-0.461-0.785-0.786-1.171
				c-0.97-1.15-1.987-2.261-3.048-3.327c-4.038-4.056-8.703-7.494-13.761-10.169c-5.663-2.995-11.798-5.016-18.132-5.97
				C347.991,310.862,347.733,311.778,348.337,311.869L348.337,311.869z"/>
		</g>
		<g>
			<g>
				<rect x="317.228" y="386.089" style="fill:#263238;" width="133.843" height="5.878"/>
				<rect x="324.792" y="391.967" style="fill:#263238;" width="19.897" height="3.293"/>
				<g>
					<path style="fill:#263238;" d="M340.806,441.009c1.884-7.513,0.343-16.846-0.875-24.496c-1.218-7.65-6.895-13.966,1.649-23.141
						l-13.679,0.303c8.544,9.176,2.867,15.492,1.649,23.142c-1.218,7.65-2.759,16.982-0.875,24.496
						c1.366,5.446,4.424,8.581,4.762,14.185c0.419,6.936-1.513,9.935-0.388,19.434h3.452c1.125-9.498-0.876-12.801-0.457-19.737
						C336.382,449.59,339.44,446.456,340.806,441.009z"/>
				</g>
				<rect x="425.474" y="391.967" style="fill:#263238;" width="19.897" height="3.293"/>
				<g>
					<path style="fill:#263238;" d="M441.488,441.009c1.884-7.513,0.343-16.846-0.875-24.496c-1.218-7.65-6.895-13.966,1.649-23.141
						l-13.679,0.303c8.544,9.176,2.867,15.492,1.649,23.142c-1.218,7.65-2.759,16.982-0.875,24.496
						c1.366,5.446,4.424,8.581,4.762,14.185c0.419,6.936-1.513,9.935-0.388,19.434h3.452c1.125-9.498-0.876-12.801-0.457-19.737
						C437.064,449.59,440.122,446.456,441.488,441.009z"/>
				</g>
			</g>
			<rect x="336.127" y="401.307" style="fill:#263238;" width="98.695" height="2.335"/>
		</g>
	</g>
</g>
<g id="Character_2_00000043447351139952595650000016784270528986786741_">
	<g>
		<g>
			<path style="fill:#263238;" d="M680.5,258.735H558.133c-5.055,0.122-9.28,3.88-9.991,8.886l-14.218,116.044h140.128
				l14.252-116.044c0.656-4.202-2.22-8.141-6.422-8.796C681.424,258.753,680.962,258.723,680.5,258.735z"/>
			<path style="opacity:0.6;fill:#FFFFFF;enable-background:new    ;" d="M680.5,258.735H558.133
				c-5.055,0.122-9.28,3.88-9.991,8.886l-14.218,116.044h140.128l14.252-116.044c0.656-4.202-2.22-8.141-6.422-8.796
				C681.424,258.753,680.962,258.723,680.5,258.735z"/>
			<path style="opacity:0.2;enable-background:new    ;" d="M646.949,383.665h27.103l14.252-116.044
				c0.656-4.202-2.22-8.141-6.422-8.796c-0.457-0.071-0.919-0.101-1.382-0.09h-9.308c-5.055,0.122-9.28,3.88-9.991,8.886
				L646.949,383.665z"/>
		</g>
		<g>
			<polygon style="fill:#263238;" points="666.202,451.929 656.701,451.929 652.816,409.708 669.107,409.708 			"/>
			<polygon style="fill:#263238;" points="624.505,451.929 615.004,451.929 611.131,409.708 627.41,409.708 			"/>
			<polygon style="fill:#263238;" points="553.735,451.929 544.234,451.929 540.36,409.708 556.64,409.708 			"/>
			<polygon style="fill:#263238;" points="512.039,451.929 502.549,451.929 498.664,409.708 514.944,409.708 			"/>
			<polygon style="opacity:0.2;fill:#FFFFFF;enable-background:new    ;" points="624.505,451.929 615.004,451.929 611.131,409.708 
				627.41,409.708 			"/>
			<path style="fill:#263238;" d="M673.174,407.885l-0.866,10.914c-0.06,0.796-0.728,1.41-1.526,1.401H497.707
				c-0.796,0.003-1.461-0.607-1.527-1.401l-0.854-10.914H673.174z"/>
		</g>
		<g>
			<path style="fill:#263238;" d="M620.507,378.082h-64.857l-3.896-44.431c-0.778-8.811-8.152-15.572-16.998-15.585h-56.963
				c-3.964-0.003-7.179,3.209-7.182,7.173c0,0.211,0.009,0.421,0.027,0.631l0.9,10.253c0.285,3.364,2.883,6.07,6.232,6.494
				l2.028,0.262c2.496,0.318,4.432,2.335,4.648,4.842l4.91,56.12c0.381,4.082,3.795,7.211,7.895,7.234h123.255V378.082z"/>
			<path style="opacity:0.6;fill:#FFFFFF;enable-background:new    ;" d="M620.507,378.082h-64.857l-3.896-44.431
				c-0.778-8.811-8.152-15.572-16.998-15.585h-56.963c-3.964-0.003-7.179,3.209-7.182,7.173c0,0.211,0.009,0.421,0.027,0.631
				l0.9,10.253c0.285,3.364,2.883,6.07,6.232,6.494l2.028,0.262c2.496,0.318,4.432,2.335,4.648,4.842l4.91,56.12
				c0.381,4.082,3.795,7.211,7.895,7.234h123.255V378.082z"/>
			<path style="opacity:0.2;enable-background:new    ;" d="M512.278,333.595c-0.778-8.811-8.152-15.572-16.998-15.585h39.429
				c8.846,0.013,16.219,6.774,16.998,15.585l3.896,44.431H516.22L512.278,333.595z"/>
			<path style="opacity:0.1;fill:#FFFFFF;enable-background:new    ;" d="M620.507,378.082H516.22l-3.896-44.431
				c-0.778-8.811-8.152-15.572-16.998-15.585h-17.51c-3.964-0.003-7.179,3.209-7.182,7.173c0,0.211,0.009,0.421,0.027,0.631
				l0.9,10.253c0.285,3.364,2.883,6.07,6.232,6.494l2.028,0.262c2.496,0.318,4.432,2.335,4.648,4.842l4.91,56.12
				c0.381,4.082,3.795,7.211,7.895,7.234h123.233V378.082z"/>
			<path style="fill:#263238;" d="M635.397,384.702h-121.08c-3.158,0-5.719-2.561-5.719-5.719v-18.627
				c0-3.159,2.561-5.719,5.719-5.719h121.08c3.159,0,5.719,2.561,5.719,5.719v18.627
				C641.116,382.141,638.555,384.702,635.397,384.702z"/>
			<path style="opacity:0.5;fill:#FFFFFF;enable-background:new    ;" d="M508.598,360.356v18.638c0,3.146,2.55,5.696,5.696,5.696
				h121.102c3.146,0,5.696-2.55,5.696-5.696v-18.638c0-3.146-2.55-5.696-5.696-5.696h-121.08c-3.146-0.013-5.706,2.528-5.719,5.674
				C508.598,360.341,508.598,360.348,508.598,360.356z"/>
			<path style="opacity:0.1;fill:#FFFFFF;enable-background:new    ;" d="M508.598,360.356v18.638
				c-0.002,1.714,0.768,3.337,2.096,4.42h90.32c3.146,0,5.696-2.55,5.696-5.696v-18.65c0-1.721-0.779-3.351-2.119-4.432h-90.274
				c-3.146-0.013-5.706,2.528-5.719,5.673C508.598,360.325,508.598,360.341,508.598,360.356z"/>
			<polygon style="opacity:0.4;enable-background:new    ;" points="612.76,322.806 627.24,324.617 626.681,329.004 
				611.245,327.181 			"/>
		</g>
		<path style="fill:#407BFF;" d="M486.795,441.016c0,0-0.114-0.091-0.114-0.102l-0.125-0.103l0,0l0.137,0.091
			c0-0.137,1.139-2.484,0.558-3.6c-0.145-0.29-0.42-0.494-0.741-0.547c-0.352-0.106-0.73,0.045-0.911,0.365
			c-0.252,0.743-0.228,1.552,0.068,2.278c-0.672-0.706-1.504-1.413-2.153-1.378c-0.274,0.012-0.521,0.168-0.649,0.41
			c-0.274,0.343-0.328,0.812-0.137,1.208c0.357,0.497,0.884,0.846,1.481,0.98c0.775,0.237,1.573,0.39,2.381,0.456
			c0.021,0.012,0.047,0.012,0.068,0c0,0,0,0,0.057,0C486.748,441.065,486.776,441.044,486.795,441.016z M485.975,437.382
			c0-0.114,0.171-0.228,0.478-0.16h0.091c0.165,0.054,0.301,0.174,0.376,0.33c0.19,0.969,0.071,1.974-0.342,2.871l-0.137-0.171
			C485.953,439.38,485.788,438.364,485.975,437.382z M483.104,439.455c-0.099-0.259-0.06-0.55,0.103-0.775
			c0.066-0.116,0.186-0.193,0.319-0.205c0.638,0,1.834,1.139,2.62,2.165C484.505,440.424,483.377,440.002,483.104,439.455z"/>
		<polygon style="fill:#FDBBB5;" points="495.886,446.017 487.991,441.46 494.28,422.287 502.175,426.855 		"/>
		<path style="fill:#263238;" d="M487.775,440.184l9.695,3.281c0.338,0.098,0.533,0.452,0.435,0.79
			c-0.001,0.002-0.001,0.005-0.002,0.007l0,0l-2.119,7.838c-0.286,0.834-1.189,1.285-2.028,1.014
			c-3.361-1.196-4.91-1.937-9.114-3.418c-2.62-0.9-7.872-2.404-11.256-4.193c-3.384-1.789-1.538-5.081,0.057-4.625
			c3.771,1.071,9.638,0.376,12.714-0.718C486.685,439.997,487.252,440.005,487.775,440.184z"/>
		<g>
			<polygon style="fill:#FDBBB5;" points="470.19,397.202 465.519,389.364 479.68,376.137 484.339,383.964 			"/>
			<path style="fill:#407BFF;" d="M464.699,388.395c0,0-0.057-0.137,0-0.148l-0.068-0.148l0,0l0.08,0.137
				c0.103-0.08,2.187-1.606,2.279-2.871c0.007-0.32-0.132-0.625-0.376-0.832c-0.258-0.263-0.663-0.315-0.98-0.125
				c-0.585,0.527-0.961,1.247-1.059,2.028c-0.113-0.878-0.538-1.687-1.196-2.279c-0.241-0.132-0.533-0.132-0.775,0
				c-0.407,0.166-0.682,0.552-0.706,0.991c0.066,0.606,0.354,1.166,0.809,1.572c0.557,0.59,1.18,1.114,1.857,1.561
				c-0.01,0.022-0.01,0.047,0,0.068c0,0,0,0,0.068,0C464.649,388.371,464.672,388.386,464.699,388.395z M465.747,384.818
				c0.103-0.068,0.273-0.114,0.501,0.091l0.08,0.068c0.112,0.129,0.17,0.297,0.16,0.467c0,0.752-1.048,1.777-1.709,2.347v-0.216
				C464.772,386.572,465.114,385.597,465.747,384.818z M462.238,385.24c0.034-0.273,0.206-0.51,0.456-0.626
				c0.122-0.063,0.266-0.063,0.387,0c0.57,0.296,1.014,1.925,1.23,3.167C463.001,386.766,462.215,385.843,462.238,385.24z"/>
			<path style="fill:#263238;" d="M465.952,388.145l6.836,7.599c0.249,0.253,0.249,0.659,0,0.911l0,0l-5.696,5.799
				c-0.659,0.598-1.676,0.552-2.279-0.103c-2.347-2.689-3.338-4.09-6.334-7.451c-1.846-2.051-5.696-5.947-7.77-9.114
				c-2.073-3.167,1.139-5.184,2.279-4.01c2.78,2.78,8.237,5.024,11.392,5.582C464.98,387.427,465.537,387.706,465.952,388.145z"/>
			<path style="fill:#407BFF;" d="M566.599,280.895l8.533,6.243l6.368,4.671l0.923-1.139l2.347-2.905l4.557-5.56l-8.92-19.367
				c-3.087,2.051-9.763,11.917-12.532,16.12C567.067,280.154,566.599,280.895,566.599,280.895z"/>
			<path style="opacity:0.2;enable-background:new    ;" d="M575.133,287.138l6.368,4.671l3.27-4.044
				c-0.763-6.448-1.561-13.033-1.561-13.033C579.698,278.272,576.949,282.494,575.133,287.138z"/>
			<path style="fill:#263238;" d="M490.03,425.716c0,0,18.923-68.537,22.056-72.479c5.081-6.437,54.069-13.238,54.069-13.238
				l12.817-22.159l46.276,6.482c0,0-3.418,32.548-9.114,40.933c-5.696,8.385-80.26,6.984-85.216,8.613
				c-4.956,1.629-23.708,55.128-23.708,55.128L490.03,425.716z"/>
			<path style="opacity:0.2;fill:#FFFFFF;enable-background:new    ;" d="M490.03,425.704l17.26,3.281
				c0,0,18.741-53.488,23.708-55.117c4.967-1.629,79.554-0.228,85.216-8.613c5.662-8.385,9.114-40.933,9.114-40.933l-46.276-6.482
				l-3.782,6.551l-2.119,3.657l-6.995,11.951c0,0-48.988,6.835-54.114,13.238C508.953,357.167,490.03,425.704,490.03,425.704z"/>
			<polygon style="opacity:0.2;enable-background:new    ;" points="575.269,324.391 573.116,328.037 608.43,338.843 			"/>
			<path style="fill:#263238;" d="M600.914,336.923c0,0-53.727-20.586-68.355-14.879c-14.628,5.708-60.882,57.316-60.882,57.316
				l10.458,13.238c0,0,46.846-44.51,52.326-47.051s60.494,25.064,60.494,25.064L600.914,336.923z"/>
			<path style="opacity:0.2;fill:#FFFFFF;enable-background:new    ;" d="M600.914,336.923c0,0-53.727-20.586-68.355-14.879
				c-14.628,5.708-60.882,57.316-60.882,57.316l10.458,13.238c0,0,46.846-44.51,52.326-47.051s60.494,25.064,60.494,25.064
				L600.914,336.923z"/>
			<path style="opacity:0.2;enable-background:new    ;" d="M589.692,368.047c0,0-47.849-24.095-56.564-27.342
				c-8.715-3.247-27.342,7.098-30.589,32.685l3.839-4.193c0,0,3.819-15.353,9.207-20.002c3.725-3.214,20.687-1.325,20.687-1.325
				C532.242,345.876,571.31,365.437,589.692,368.047z"/>
			<path style="fill:#407BFF;" d="M574.557,326.306c15.43,7.145,31.96,12.886,50.771,9.818c0,0,0.615-17.578,1.333-27.319l0,0
				c0.456-6.22,0.911-13.512,1.139-20.734c0.365-10.937,0.251-21.703-1.037-28.242c-9.139-1.646-19.028-2.337-28.276-1.492
				c-5.812,2.094-12.202,2.398-18.148,4.956C580.339,263.292,577.964,293.86,574.557,326.306z"/>
			<path style="fill:#FDBBB5;" d="M576.557,306.163l-8.715-2.894l1.344,11.552c0,0,7.975,0.809,8.829-3.418L576.557,306.163z"/>
			<polygon style="fill:#FDBBB5;" points="560.732,305.787 562.293,315.277 569.186,314.821 567.841,303.258 			"/>
			<path style="opacity:0.2;enable-background:new    ;" d="M626.661,308.441c0.456-6.22,0.911-13.512,1.139-20.734
				c-4.113-7.588-10.565-16.569-10.565-16.569S600.469,289.45,626.661,308.441z"/>
			<path style="fill:#FDBBB5;" d="M631.56,282.239c-2.37,10.925-7.553,29.074-17.727,35.078c-0.944,0.49-1.959,0.828-3.008,1.002
				c-3.515,0.35-7.061,0.247-10.549-0.308c-9.175-1.24-18.249-3.143-27.148-5.696l1.139-6.334l18,0.991
				c4.751,0.262,13.044,0.592,16.063,0.08l-0.365,0.194c0.159-0.148,0.49-0.444,0.638-0.615c2.541-2.996,4.01-6.756,5.491-10.641
				c1.896-5.358,3.497-10.815,4.796-16.348L631.56,282.239z"/>
			<path style="fill:#407BFF;" d="M613.81,288.516l18.479,4.329l0.513-2.21c3.224-14.81,1.971-29.621-6.027-31.227
				c0,0-5.582,2.803-8.077,7.678c-1.948,3.76-3.817,14.571-4.557,19.231C613.935,287.673,613.81,288.516,613.81,288.516z"/>
			<path style="fill:#FDBBB5;" d="M608,236.361L608,236.361c0,1.219,0,2.62,0,4.124l0,0c0.262,6.744,1.876,14.405,6.24,17.356
				c-3.357,4.92-9.059,7.862-14.128,8.06c-4.367,0.077-4.516-4.954-3.593-7.335c2.106-0.707,1.969-0.64,1.969-0.64
				c1.139-2.711,0.216-5.935-1.139-8.966L608,236.361z"/>
			<path style="opacity:0.2;enable-background:new    ;" d="M608,236.361L608,236.361c0.077,1.374,0.077,2.75,0,4.124l0,0
				c-0.262,5.469-1.903,14.662-9.558,17.442c1.139-2.711,0.217-5.935-1.139-8.966L608,236.361z"/>
			<g>
				<g>
					<g>
						<path style="fill:#FDBBB5;" d="M608.474,230.826c-0.221-8.885-9.466-14.813-17.69-10.611
							c-8.348,4.265-8.421,17.489-5.837,25.266c2.871,8.641,14.131,11.746,20.256,4.342
							C609.276,244.901,608.695,239.711,608.474,230.826L608.474,230.826z"/>
					</g>
				</g>
				<path style="fill:#263238;" d="M601.23,215.993c7.583-1.357,9.296,3.253,10.641,8.236c1.725,0.901,2.044,2.623,0.511,5.412
					c-0.035,0.339-0.101,0.694-0.204,1.069c-0.506,1.855-2.502,6.172-4.266,9.825c0.105-0.476,0.181-0.982,0.234-1.529
					c0.176-1.827,0.33-4.346,0.391-7.352c-0.675,0.19-1.119,0.499-1.506,0.846c-2.82,2.532-3.602,4.442-5.366,3.196
					c-1.071-0.758-0.795-4.092-0.762-6.879c0.001-0.728-0.042-2.363-0.4-3.886c-0.478-2.037-2.929-3.195-2.929-3.195
					s-0.154-0.115-0.329-0.301c-2.337,2.486-8.367,7.388-13.794,6.214C575.342,225.896,592.044,209.738,601.23,215.993z"/>
				<path style="fill:#FDBBB5;" d="M612.35,236.359c-0.358,2.454-1.822,4.504-3.483,5.683c-2.499,1.774-3.977-1.031-4.171-3.934
					c-0.175-2.613,0.083-5.87,3.018-6.491C610.606,231.005,612.759,233.554,612.35,236.359z"/>
				<path style="fill:#263238;" d="M594.984,235.519c0.141,0.897-0.221,1.694-0.809,1.781c-0.588,0.087-1.179-0.57-1.321-1.467
					c-0.141-0.897,0.221-1.694,0.809-1.781C594.251,233.966,594.842,234.622,594.984,235.519z"/>
				<path style="fill:#263238;" d="M586.765,237.273c0.142,0.897-0.221,1.694-0.808,1.781c-0.588,0.087-1.18-0.57-1.321-1.467
					c-0.142-0.897,0.221-1.694,0.809-1.781C586.032,235.719,586.623,236.376,586.765,237.273z"/>
				<path style="fill:#E97A75;" d="M590.373,235.588c0,0-2.137,4.904-2.761,6.862c1.426,0.931,3.495,0.072,3.495,0.072
					L590.373,235.588z"/>
				<path style="fill:#263238;" d="M596.375,230.867c-0.127,0.077-0.291,0.085-0.431,0.007c-1.626-0.901-2.939-0.278-3.076-0.209
					c-0.208,0.108-0.466,0.028-0.577-0.178c-0.11-0.207-0.03-0.463,0.177-0.571c0.073-0.038,1.824-0.924,3.889,0.221
					c0.206,0.114,0.281,0.372,0.167,0.576C596.487,230.779,596.435,230.831,596.375,230.867z"/>
				<path style="fill:#263238;" d="M595.799,244.382c0.018-0.147,0.112-0.281,0.26-0.344c1.712-0.726,2.029-2.145,2.059-2.294
					c0.043-0.231,0.265-0.385,0.496-0.344c0.231,0.041,0.383,0.261,0.341,0.491c-0.015,0.082-0.395,2.006-2.569,2.928
					c-0.217,0.092-0.466-0.008-0.556-0.223C595.799,244.525,595.791,244.452,595.799,244.382z"/>
				<path style="opacity:0.2;" d="M606.159,237.799c-0.133,0-0.244-0.105-0.25-0.239c-0.037-0.84,0.148-1.68,0.536-2.429
					c0.262-0.507,0.734-1.178,1.496-1.498c0.754-0.315,1.626-0.162,2.12,0.371c0.095,0.101,0.089,0.259-0.013,0.354
					c-0.1,0.095-0.259,0.088-0.352-0.013c-0.352-0.377-1.008-0.481-1.562-0.251c-0.623,0.262-1.021,0.834-1.246,1.267
					c-0.347,0.672-0.513,1.425-0.479,2.177c0.006,0.138-0.101,0.255-0.239,0.261C606.166,237.799,606.163,237.799,606.159,237.799z"
					/>
				<path style="fill:#263238;" d="M583.051,233.378c-0.081-0.004-0.161-0.032-0.231-0.085c-0.189-0.141-0.23-0.408-0.091-0.596
					c1.393-1.885,3.343-1.762,3.431-1.768c0.234,0.016,0.413,0.218,0.4,0.453c-0.013,0.234-0.212,0.41-0.444,0.397
					c-0.081-0.008-1.584-0.083-2.703,1.429C583.327,233.327,583.188,233.385,583.051,233.378z"/>
			</g>
			<g>
				<path style="fill:#263238;" d="M591.427,239.499c-0.155,0-0.306-0.048-0.433-0.137c-0.183-0.115-0.311-0.3-0.353-0.513
					l-0.581-2.882c-0.084-0.437,0.202-0.859,0.638-0.946l5.252-1.059c0.431-0.09,0.854,0.186,0.944,0.618
					c0.001,0.003,0.001,0.006,0.002,0.009l0.581,2.894c0.043,0.208,0.002,0.425-0.114,0.604c-0.124,0.172-0.306,0.294-0.513,0.342
					l-5.263,1.059h-0.159V239.499z M591.53,239.202 M596.087,234.52L596.087,234.52l-5.263,1.06
					c-0.124,0.028-0.204,0.148-0.182,0.273l0.592,2.894c0.015,0.057,0.047,0.109,0.091,0.148c0.059,0.023,0.124,0.023,0.182,0
					l5.252-1.06c0.061-0.012,0.115-0.049,0.148-0.102c0.021-0.055,0.021-0.116,0-0.171l-0.581-2.894
					c-0.037-0.086-0.123-0.14-0.216-0.137L596.087,234.52z"/>
				<path style="fill:#263238;" d="M582.837,241.23c-0.384,0.001-0.715-0.272-0.786-0.649l-0.581-2.882
					c-0.09-0.431,0.186-0.854,0.617-0.944c0.003-0.001,0.006-0.001,0.009-0.002l5.252-1.06c0.431-0.09,0.854,0.186,0.944,0.618
					c0.001,0.003,0.001,0.006,0.002,0.009l0.581,2.894c0.09,0.431-0.186,0.854-0.617,0.944c-0.003,0.001-0.006,0.001-0.009,0.002
					l-5.252,1.048l0,0L582.837,241.23z M587.497,236.24L587.497,236.24l-5.252,1.059c-0.124,0.028-0.204,0.148-0.182,0.273
					l0.581,2.882c0.022,0.124,0.141,0.206,0.265,0.184c0.003-0.001,0.006-0.001,0.009-0.002l5.252-1.048
					c0.124-0.028,0.204-0.148,0.182-0.273l-0.581-2.894c-0.023-0.122-0.14-0.203-0.262-0.182L587.497,236.24z"/>
				<path style="fill:#263238;" d="M588.169,237.402c-0.073,0.001-0.143-0.027-0.194-0.08c-0.109-0.111-0.109-0.288,0-0.399
					c0.698-0.684,1.731-0.898,2.643-0.547c0.147,0.057,0.219,0.222,0.162,0.369c-0.001,0.002-0.002,0.005-0.003,0.007
					c-0.051,0.142-0.207,0.216-0.349,0.165c-0.005-0.002-0.01-0.004-0.015-0.006c-0.693-0.27-1.479-0.115-2.016,0.399
					C588.339,237.374,588.255,237.408,588.169,237.402z"/>
				<path style="fill:#263238;" d="M596.683,235.545c-0.108-0.003-0.2-0.097-0.222-0.228c-0.029-0.153,0.049-0.306,0.174-0.341
					c0.001,0,0.001,0,0.002-0.001l8.057-2.279c0.124-0.035,0.248,0.061,0.277,0.214c0,0.001,0,0.002,0,0.002
					c0.029,0.153-0.049,0.306-0.173,0.341c-0.001,0-0.001,0-0.002,0l-8.057,2.279L596.683,235.545z"/>
			</g>
			<polygon style="fill:#263238;" points="603.499,319.678 579.017,328.304 549.94,315.277 603.499,317.84 			"/>
			<path style="fill:#263238;" d="M575.811,328.304H525.63c-1.295,0-2.408-0.92-2.651-2.192l-7.344-38.375
				c-0.318-1.664,0.957-3.206,2.651-3.206h50.886c1.313,0,2.436,0.945,2.659,2.239l6.64,38.375
				C578.756,326.795,577.486,328.304,575.811,328.304z"/>
			<path style="opacity:0.2;enable-background:new    ;" d="M603.499,317.84c-0.617-0.03-24.677,8.065-24.677,8.065l-0.858-9.287
				L603.499,317.84z"/>
		</g>
		<g>
			<path style="fill:#263238;" d="M610.356,375.565l3.668-41.97c0.778-8.811,8.152-15.572,16.998-15.585h62.807
				c3.964-0.003,7.179,3.209,7.182,7.173c0,0.211-0.009,0.421-0.027,0.631l-0.9,10.253c-0.29,3.366-2.892,6.071-6.243,6.494
				l-2.017,0.262c-2.496,0.318-4.432,2.335-4.648,4.842l-4.91,56.119c-0.381,4.082-3.795,7.211-7.895,7.234h-64.014V375.565z"/>
			<path style="opacity:0.6;fill:#FFFFFF;enable-background:new    ;" d="M610.356,375.565l3.668-41.97
				c0.778-8.811,8.152-15.572,16.998-15.585h62.807c3.964-0.003,7.179,3.209,7.182,7.173c0,0.211-0.009,0.421-0.027,0.631
				l-0.9,10.253c-0.29,3.366-2.892,6.071-6.243,6.494l-2.017,0.262c-2.496,0.318-4.432,2.335-4.648,4.842l-4.91,56.119
				c-0.381,4.082-3.795,7.211-7.895,7.234h-64.014V375.565z"/>
			<g style="opacity:0.2;">
				<path d="M636.969,403.761l4.91-56.12c0.216-2.507,2.152-4.524,4.648-4.842l2.028-0.262c3.351-0.419,5.951-3.128,6.232-6.494
					l0.9-10.253c0.346-3.949-2.575-7.43-6.523-7.776c-0.21-0.018-0.421-0.027-0.631-0.027h45.297
					c3.964-0.003,7.179,3.209,7.182,7.173c0,0.211-0.009,0.421-0.027,0.631l-0.9,10.253c-0.29,3.366-2.892,6.071-6.243,6.494
					l-2.017,0.262c-2.496,0.318-4.432,2.335-4.648,4.842l-4.91,56.12c-0.381,4.082-3.795,7.211-7.895,7.234h-45.297
					C633.174,410.972,636.588,407.844,636.969,403.761z"/>
			</g>
		</g>
		<path style="opacity:0.1;fill:#FFFFFF;enable-background:new    ;" d="M548.71,303.058c1.422,1.764,1.413,4.13-0.019,5.285
			c-1.433,1.155-3.747,0.661-5.169-1.103c-1.422-1.764-1.413-4.13,0.019-5.286C544.974,300.801,547.288,301.294,548.71,303.058z"/>
	</g>
</g>
<g id="Luggage">
	<g>
		<path style="fill:#407BFF;" d="M715.607,460.426h-64.4c-3.39,0-6.138-2.748-6.138-6.138v-93.679c0-3.39,2.748-6.138,6.138-6.138
			h64.4c3.39,0,6.138,2.748,6.138,6.138v93.679C721.745,457.678,718.997,460.426,715.607,460.426z"/>
		<path style="opacity:0.4;fill:#FFFFFF;enable-background:new    ;" d="M715.607,460.426h-64.4c-3.39,0-6.138-2.748-6.138-6.138
			v-93.679c0-3.39,2.748-6.138,6.138-6.138h64.4c3.39,0,6.138,2.748,6.138,6.138v93.679
			C721.745,457.678,718.997,460.426,715.607,460.426z"/>
		<path style="opacity:0.3;" d="M715.607,460.426h-6.472c-3.849,0-6.97-3.12-6.97-6.97v-91.122c0-4.343,3.521-7.864,7.864-7.864
			h5.577c3.39,0,6.138,2.748,6.138,6.138v93.679C721.745,457.678,718.997,460.426,715.607,460.426z"/>
		<path style="opacity:0.3;" d="M656.619,453.19h-0.394c-0.781,0-1.415-0.634-1.415-1.415v-88.653c0-0.781,0.633-1.415,1.415-1.415
			h0.394c0.781,0,1.415,0.634,1.415,1.415v88.653C658.034,452.556,657.401,453.19,656.619,453.19z"/>
		<path style="opacity:0.3;" d="M668.204,453.19h-0.394c-0.781,0-1.415-0.634-1.415-1.415v-88.653c0-0.781,0.633-1.415,1.415-1.415
			h0.394c0.782,0,1.415,0.634,1.415,1.415v88.653C669.62,452.556,668.986,453.19,668.204,453.19z"/>
		<path style="opacity:0.3;" d="M679.79,453.19h-0.394c-0.781,0-1.415-0.634-1.415-1.415v-88.653c0-0.781,0.634-1.415,1.415-1.415
			h0.394c0.781,0,1.415,0.634,1.415,1.415v88.653C681.205,452.556,680.571,453.19,679.79,453.19z"/>
		<path style="opacity:0.3;" d="M691.375,453.19h-0.394c-0.781,0-1.415-0.634-1.415-1.415v-88.653c0-0.781,0.633-1.415,1.415-1.415
			h0.394c0.781,0,1.415,0.634,1.415,1.415v88.653C692.79,452.556,692.156,453.19,691.375,453.19z"/>
		<path style="fill:#263238;" d="M698.854,354.471h-27.415v-0.466c0-1.849,1.499-3.347,3.347-3.347h20.721
			c1.849,0,3.347,1.499,3.347,3.347V354.471z"/>
		<rect x="656.422" y="460.426" style="fill:#263238;" width="56.301" height="2.773"/>
		<path style="fill:#263238;" d="M669.669,467.022c0,2.469-2.002,4.471-4.471,4.471c-2.469,0-4.471-2.002-4.471-4.471
			s2.002-4.471,4.471-4.471C667.667,462.551,669.669,464.552,669.669,467.022z"/>
		<circle style="fill:#263238;" cx="703.073" cy="467.022" r="4.471"/>
	</g>
	<g>
		<g>
			<g>
				<path style="fill:#407BFF;" d="M571.279,480.086c0,0-0.624-41.754,0.991-45.676c1.615-3.922,7.644-6.826,12.95-7.518
					c5.306-0.692,76.248-3.842,79.248,1.234c2.999,5.076,2.912,51.96,2.912,51.96s-16.321,0.055-19.551,0.286
					C644.599,480.603,571.279,480.086,571.279,480.086z"/>
				<path style="fill:#263238;" d="M581.794,445.192c0,0,17.395-36.468,25.963-38.372c0,0,18.658,1.094,19.293,1.887
					c0.635,0.793-1.839,38.256-1.839,38.256l-7.299-0.952c0,0,6.823-31.099,6.188-33.32s-15.391-3.332-17.136-2.539
					c-1.745,0.793-2.539,1.428-3.332,2.697c-0.793,1.269-16.023,32.238-16.023,32.238L581.794,445.192z"/>
				<path style="fill:#263238;" d="M604.717,424.272l1.136-14.596h3.491c0,0-1.113,14.615-0.636,14.613
					C609.185,424.286,604.717,424.272,604.717,424.272z"/>
				<polygon style="fill:#263238;" points="625.052,411.739 635.996,424.573 642.842,424.835 627.05,408.707 				"/>
				<g style="opacity:0.2;enable-background:new    ;">
					<path d="M667.027,456.33c0,0-0.222-28.332-3.021-28.335c-2.779-0.003-8.373,2.322-10.281,4.342
						c-2.392,2.531-3.72,5.918-4.325,9.348c-0.605,3.43-0.539,6.938-0.47,10.42c0.208,10.601,0.245,17.566,0.453,28.166
						l17.996-0.184L667.027,456.33z"/>
				</g>
			</g>
			<path style="fill:#263238;" d="M655.185,430.097c-20.343-1.868-40.81-1.771-61.214-1.269c-5.685,0.14-11.368,0.314-17.052,0.492
				c-0.481,0.015-0.483,0.765,0,0.75c20.41-0.639,40.851-1.243,61.263-0.357c5.675,0.246,11.345,0.615,17.002,1.134
				C655.666,430.891,655.663,430.141,655.185,430.097L655.185,430.097z"/>
		</g>
		<path style="opacity:0.2;enable-background:new    ;" d="M572.319,445.49c0,0,11.286-4.836,27.391-4.304
			c16.105,0.532,28.591,2.703,33.296,7.77c4.705,5.067,11.074,21.482,11.526,31.475h-3.669c0,0-0.662-19.216-11.437-31.393
			C624.253,443.192,572.319,445.49,572.319,445.49z"/>
	</g>
</g>
<g id="Character_1">
	<g>
		<g>
			<path style="fill:#263238;" d="M203.507,162.919c-0.662-3.832-0.77-9.044-3.533-11.78c-2.763-2.736-8.208-2.935-12.096-2.898
				c-3.888,0.036-7.78,1.926-9.979,5.132c-2.167,3.16-2.565,7.204-2.421,11.033c0.125,3.307,0.623,6.664,2.096,9.627
				c1.472,2.964,4.028,5.508,7.22,6.381l12.69-1.782c2.566-1.523,4.457-4.061,5.439-6.878
				C203.904,168.937,204.014,165.859,203.507,162.919z"/>
		</g>
		<polygon style="fill:#FFAF6B;" points="214.182,216.686 217.253,248.518 221.593,276.184 216.222,277.122 207.957,251.968 
			204.725,220.832 		"/>
		<path style="fill:#407BFF;" d="M203.745,221.967c0.095,0.089,14.108-3.662,14.108-3.662s-5.017-14.055-7.001-18.906
			c-1.984-4.851-5.419-8.487-8.664-9.136l-2.213,9.546L203.745,221.967z"/>
		<path style="opacity:0.8;fill:#FFFFFF;" d="M203.745,221.967c0.095,0.089,14.108-3.662,14.108-3.662s-5.017-14.055-7.001-18.906
			c-1.984-4.851-5.419-8.487-8.664-9.136l-2.213,9.546L203.745,221.967z"/>
		<g>
			<path style="fill:#FFAF6B;" d="M216.222,277.122c-0.132,0.175-0.925,2.612-1.126,3.542c-0.201,0.93,0.774,7.924,1.576,7.408
				c0.803-0.516,0.917-0.849,0.898-2.395c-0.019-1.546-0.176-2.971,0.264-2.646c0.44,0.325,1.684,4.727,1.425,6.037
				c-0.26,1.31-0.809,3.667,0.055,4.159c0.863,0.492,1.308-0.518,1.308-0.518s0.24,1.255,0.887,0.703
				c0.647-0.552,2.977-4.173,3.108-5.736c0.131-1.563-2.06-7.87-2.401-9.46c-0.103-0.478-1.102-3.502-1.102-3.502l-5.497-0.548
				L216.222,277.122z"/>
		</g>
		<path style="fill:#FFAF6B;" d="M178.606,257.153c0,0-7.934,35.678,9.327,92.203c-4.59,29.485,6.227,59.881,9.209,92.884
			l7.449-0.389c0,0,3.292-67,2.106-96.521c1.873-31.601,2.029-89.793,2.029-89.793L178.606,257.153z"/>
		<path style="fill:#FFAF6B;" d="M175.354,255.994c0,0-20.031,11.815-9.394,93.175c-8.947,36.523,3.519,92.797,3.519,92.797
			l6.436-0.188c-0.571-9.069,4.383-65.199,7.967-94.154c3.4-27.561,16.868-92.434,16.868-92.434L175.354,255.994z"/>
		<path style="fill:#263238;" d="M210.978,245.355c11.72,23.908-1.922,77.036,0.916,116.708c-5.771,5.447-43.558,7.788-56.455-0.868
			c2.934-19.742,3.266-65.436,3.859-76.905c2.013-22.56,13.526-38.217,13.526-38.217S192.686,243.648,210.978,245.355z"/>
		<path style="opacity:0.2;enable-background:new    ;" d="M195.287,282.363c-6.538,12.789-8.191,34.092-7.587,49.52
			C187.699,331.883,193.39,298.14,195.287,282.363z"/>
		<path style="fill:#407BFF;" d="M198.948,189.794c-1.84-0.069-3.063-0.319-4.92-0.265c-5.755,0.184-9.852,0.362-15.522,1.368
			c-1.646,0.252-3.67,0.92-5.162,1.229c-0.242,0.05-0.482,0.108-0.719,0.176c-5.197,1.485-8.206,6.901-6.721,12.098
			c6.92,23.339,7.539,33.74,5.471,44.366c18.322,3.415,37.304-0.005,39.604-3.411c0,0-1.339-11.347-1.054-18.445
			c7.688-6.963,1.503-21.853,0.628-24.254C207.676,195.636,205.58,190.009,198.948,189.794z"/>
		<path style="opacity:0.3;" d="M198.948,189.794c-1.84-0.069-3.063-0.319-4.92-0.265c-5.755,0.184-9.852,0.362-15.522,1.368
			c-1.646,0.252-3.67,0.92-5.162,1.229c-0.242,0.05-0.482,0.108-0.719,0.176c-5.197,1.485-8.206,6.901-6.721,12.098
			c6.92,23.339,7.539,33.74,5.471,44.366c18.322,3.415,37.304-0.005,39.604-3.411c0,0-1.339-11.347-1.054-18.445
			c7.688-6.963,1.503-21.853,0.628-24.254C207.676,195.636,205.58,190.009,198.948,189.794z"/>
		<path style="fill:#FFAF6B;" d="M185.716,240.487l0.231,1.541c3.879,3.894,11.322,5.058,11.322,5.058l2.409-11.329l-10.189,0.812
			C187.119,237.212,186.456,238.059,185.716,240.487z"/>
		<path style="fill:#FFAF6B;" d="M203.705,237.775l-4.077-2.023l-2.409,11.329l2.743,0.75c1.444,0.388,2.945-0.391,3.458-1.795
			l1.704-4.719C205.617,239.947,205.007,238.425,203.705,237.775z"/>
		<path style="fill:#FFAF6B;" d="M190.141,237.26l-22.139-7.154c0.146-2.054,2.491-11.487,2.491-11.487l-7.946-10.812
			c0,0-7.122,22.607-4.134,28.626c2.989,6.019,30.088,7.025,30.088,7.025L190.141,237.26z"/>
		<path style="opacity:0.2;enable-background:new    ;" d="M178.442,206.833c0,0-7.156,19.419-7.245,18.927
			c-0.089-0.492-0.089-0.492-0.089-0.492l-1.987-8.432L178.442,206.833z"/>
		<path style="fill:#407BFF;" d="M179.277,203.713c-1.02,5.635-6.668,16.366-6.668,16.366s-11.815-2.586-13.317-9.607
			c3.937-10.61,7.717-16.762,13.53-18.014C178.687,191.193,180.297,198.078,179.277,203.713z"/>
		<path style="opacity:0.8;fill:#FFFFFF;" d="M179.277,203.713c-1.02,5.635-6.668,16.366-6.668,16.366s-11.815-2.586-13.317-9.607
			c3.937-10.61,7.717-16.762,13.53-18.014C178.687,191.193,180.297,198.078,179.277,203.713z"/>
		<g>
			<g>
				<g>
					<path style="fill:#FFAF6B;" d="M183.173,172.636l8.649,8.233l2.399,1.346c-0.491,1.266-0.904,2.566-1.061,3.819
						c-0.304,2.21,0.721,3.571,2.81,5.137l-7.616,5.06c-4.34-3.525-7.702-5.957-7.702-5.957
						C184.986,187.071,184.286,177.806,183.173,172.636z"/>
					<path style="opacity:0.2;" d="M193.105,186.518c-2.351-1.304-4.955-3.609-4.731-6.336c0.102-1.148,0.317-2.24,0.571-2.943
						l4.875,6.076C193.464,184.328,193.342,184.994,193.105,186.518z"/>
					<path style="fill:#FFAF6B;" d="M181.266,163.124c1.043,8.609,1.303,12.265,5.889,16.661c6.899,6.612,17.14,4.021,18.665-4.587
						c1.372-7.748-0.564-20.524-9.144-23.904C188.222,147.964,180.223,154.516,181.266,163.124z"/>
					<path style="fill:#263238;" d="M192.528,165.608c0.069,0.912,0.586,1.647,1.154,1.643c0.568-0.005,0.972-0.748,0.903-1.66
						c-0.069-0.912-0.586-1.647-1.154-1.643C192.864,163.952,192.459,164.695,192.528,165.608z"/>
					<path style="fill:#263238;" d="M201.04,165.333c0.069,0.884,0.584,1.596,1.15,1.592c0.566-0.005,0.97-0.725,0.901-1.609
						c-0.069-0.884-0.584-1.596-1.15-1.592C201.375,163.729,200.971,164.449,201.04,165.333z"/>
					<path style="fill:#263238;" d="M190.634,162.479c0.111,0.009,0.221-0.026,0.304-0.107c1.294-1.27,2.804-0.882,2.821-0.877
						c0.224,0.058,0.445-0.074,0.489-0.302c0.044-0.228-0.104-0.461-0.331-0.523c-0.079-0.021-1.974-0.51-3.579,1.066
						c-0.16,0.157-0.155,0.427,0.01,0.603C190.428,162.423,190.531,162.471,190.634,162.479z"/>
					<path style="fill:#263238;" d="M203.777,160.918c0.086-0.032,0.157-0.098,0.192-0.194c0.073-0.198-0.031-0.443-0.23-0.548
						c-2.005-1.051-3.443-0.166-3.504-0.126c-0.171,0.108-0.205,0.355-0.077,0.55c0.128,0.196,0.369,0.267,0.54,0.159
						c0.056-0.036,1.182-0.704,2.777,0.133C203.577,160.945,203.686,160.951,203.777,160.918z"/>
					<path style="fill:#E97F3F;" d="M198.712,164.98c0,0,1.445,3.192,3.027,5.161c0.277,0.344,0.127,0.863-0.283,1.027
						c-1.055,0.424-2.312,0.105-2.312,0.105L198.712,164.98z"/>
				</g>
				<path style="fill:#263238;" d="M193.108,163.995l1.967-0.526C195.075,163.469,194.035,164.978,193.108,163.995z"/>
				<path style="fill:#263238;" d="M201.738,163.751l1.968-0.526C203.705,163.225,202.665,164.734,201.738,163.751z"/>
				<path style="fill:#263238;" d="M184.349,166.019c0,0,4.257-6.833,3.868-12.254c0,0,8.458-2.471,15.521,6.41
					c1.125,1.415,0.998,2.744,2.028,4.796c0,0,1.99-15.407-12.623-16.328c-14.59-0.919-16.852,19.622-9.552,26.298
					C183.591,174.941,181.714,170.293,184.349,166.019z"/>
				<path style="fill:#FFAF6B;" d="M178.86,170.236c1.071,1.741,2.761,2.804,4.291,3.14c2.302,0.506,3.374-3.202,2.527-5.468
					c-0.762-2.04-3.048-3.339-5.258-2.824C178.242,165.59,177.635,168.246,178.86,170.236z"/>
			</g>
			<path style="opacity:0.2;" d="M183.674,169.885c-0.127,0-0.236-0.097-0.249-0.226c-0.073-0.755-0.449-1.465-1.033-1.949
				c-0.585-0.484-1.357-0.72-2.107-0.65c-0.141,0.005-0.259-0.088-0.273-0.225c-0.013-0.138,0.088-0.26,0.226-0.273
				c0.89-0.078,1.788,0.196,2.473,0.762c0.686,0.567,1.127,1.4,1.213,2.286c0.013,0.137-0.087,0.26-0.225,0.273
				C183.691,169.884,183.683,169.885,183.674,169.885z"/>
			<path style="fill:#263238;" d="M198.293,173.102c-0.678,0.806-1.572,2.419-1.572,2.419c-0.161-0.054-0.322-0.109-0.479-0.172
				c-2.162-0.796-2.902-1.879-3.066-2.839c-0.088-0.525,0.003-1.018,0.127-1.401c0.139-0.444,0.339-0.729,0.339-0.729
				c0.894,1.107,2.852,2.004,3.918,2.439C198.005,173.006,198.293,173.102,198.293,173.102z"/>
			<path style="fill:#FFFFFF;" d="M197.56,172.819l-0.482,0.701c-2.034-0.754-3.365-1.559-3.775-2.411
				c0.139-0.444,0.339-0.729,0.339-0.729C194.536,171.486,196.494,172.384,197.56,172.819z"/>
			<path style="fill:#FD504E;" d="M196.242,175.349c-2.162-0.796-2.902-1.879-3.066-2.839c0.726,0.3,1.569,0.742,2.225,1.36
				C195.905,174.34,196.138,174.865,196.242,175.349z"/>
		</g>
		<g>
			<polygon style="opacity:0.2;enable-background:new    ;" points="178.506,190.897 190.184,200.275 193.527,196.715 
				196.807,199.006 197.006,189.66 198.188,201.013 193.538,198.208 189.852,202.351 			"/>
		</g>
		<g>
			<path style="fill:#407BFF;" d="M197.006,189.66c0,0-3.745-2.062-3.673-1.752c0.072,0.31-0.877,5.548-0.877,5.548l-9.679-6.896
				l-4.271,4.337l11.678,9.378l3.329-2.901l3.908,2.299L197.006,189.66z"/>
		</g>
		<g style="opacity:0.8;">
			<path style="fill:#FFFFFF;" d="M197.006,189.66c0,0-3.745-2.062-3.673-1.752c0.072,0.31-0.877,5.548-0.877,5.548l-9.679-6.896
				l-4.271,4.337l11.678,9.378l3.329-2.901l3.908,2.299L197.006,189.66z"/>
		</g>
		<path style="fill:#263238;" d="M186.159,449.254c-1.038-0.577-2.21-1.004-3.457-1.26l0,0c0,0-3.798-2.599-5.964-10.818
			l-4.865-0.751c-1.671-0.224-3.369,0.358-4.269,1.464c-0.124,0.156-0.221,0.323-0.287,0.498c-0.194,0.887-0.317,1.781-0.367,2.677
			c-0.11,3.046,0.018,6.092,0.382,9.121l0.905-0.027l0.048-5.737c-0.057-1.947,2.12,0.254,2.784,2.313
			c0.664,2.06,1.979,4.296,7.608,4.131C185.152,450.698,187.874,450.401,186.159,449.254z"/>
		<path style="fill:#FFAF6B;" d="M175.732,434.233c0,0,1.202,3.752,3.105,7.887c0.795,2.136,2.127,4.129,3.923,5.872
			c0,0-4.189,0.743-6.118-1.323c-1.929-2.066-4.784-9.297-9.036-8.737c0.305-0.552,0.695-1.075,1.162-1.558
			C169.434,435.582,175.732,434.233,175.732,434.233z"/>
		<path style="fill:#263238;" d="M215.077,449.064c-1.051-0.553-2.232-0.952-3.485-1.18l0,0c0,0-3.857-2.511-6.211-10.678
			l-4.881-0.638c-1.676-0.186-3.36,0.435-4.234,1.561c-0.121,0.159-0.214,0.329-0.276,0.505c-0.174,0.891-0.276,1.788-0.306,2.685
			c-0.04,3.048,0.158,6.09,0.591,9.109l0.904-0.047l-0.084-5.737c-0.102-1.945,2.125,0.205,2.836,2.248
			c0.711,2.044,2.078,4.249,7.701,3.955C214.104,450.531,216.818,450.171,215.077,449.064z"/>
		<path style="fill:#FFAF6B;" d="M204.308,434.288c0,0,1.288,3.724,3.285,7.814c0.844,2.117,2.221,4.079,4.057,5.78
			c0,0-4.171,0.839-6.146-1.182c-1.976-2.021-4.997-9.184-9.235-8.527c0.292-0.559,0.669-1.09,1.125-1.584
			C198.042,435.781,204.308,434.288,204.308,434.288z"/>
		<g>
			<path style="fill:#407BFF;" d="M189.771,198.852c0,0,0.127,1.912,0.447,2.269c0.516,0.58,2.137-0.729,3.154-1.661l0.009-0.01
				c0.5-0.447,0.855-0.814,0.855-0.814s1.263,0.743,2.347,1.18c0.029,0.017,0.047,0.026,0.047,0.026
				c0.659,0.259,1.249,0.401,1.434,0.19c0.513-0.568-0.737-2.767-0.737-2.767s0.175-2.221-0.647-3.039
				c-0.628-0.613-1.919,1.072-2.512,1.94l-0.009,0c-0.183,0.286-0.304,0.476-0.304,0.476s-0.282-0.09-0.713-0.22
				c-1.304-0.399-3.977-1.176-4.478-0.969C188.009,195.721,188.254,197.359,189.771,198.852z"/>
			<path style="opacity:0.2;" d="M191.759,198.101c-0.098,0.532,1.692-0.071,1.692-0.071s0.211,0.602-0.07,1.42
				c0.5-0.447,0.855-0.814,0.855-0.814s1.263,0.743,2.347,1.18c-0.227-0.12-1.138-0.619-1.514-0.974c0,0,0.009-0.436-0.106-0.774
				c0,0,1.284,0.354,1.379-0.253c0.094-0.615-1.349-0.138-1.349-0.138s-0.068-1.173-0.823-1.512l-0.009,0
				c-0.183,0.286-0.304,0.476-0.304,0.476s-0.282-0.09-0.713-0.22c0.113,0.264,0.282,0.766,0.296,1.321
				C193.439,197.743,191.857,197.56,191.759,198.101z"/>
			<path style="fill:#407BFF;" d="M193.195,196.432c0,0,0.8-0.387,1.001-0.224c0.696,0.566,0.826,2.609,0.638,2.828
				c-0.208,0.243-0.906,0.298-1.112,0.104C193.723,199.141,193.955,196.997,193.195,196.432z"/>
		</g>
		<g>
			<path style="fill:#263238;" d="M173.721,156.654c-1.746-1.067-4.057-1.307-5.851-0.323c-1.276,0.7-2.186,1.931-2.82,3.241
				c-1.216,2.512-1.522,5.539-0.436,8.11c1.086,2.571,3.689,4.541,6.48,4.504c2.791-0.037,5.479-2.348,5.589-5.137l0.694-5.61
				C176.684,159.514,175.467,157.721,173.721,156.654z"/>
		</g>
	</g>
</g>
<g id="Counter">
	<g>
		<rect x="30.362" y="256.349" style="fill:#263238;" width="272.958" height="196.845"/>
		<rect x="30.362" y="256.349" style="opacity:0.6;fill:#FFFFFF;enable-background:new    ;" width="272.958" height="196.845"/>
		<rect x="30.362" y="257.282" style="opacity:0.2;enable-background:new    ;" width="39.482" height="195.912"/>
		<rect x="30.362" y="256.651" style="opacity:0.2;enable-background:new    ;" width="272.958" height="4.973"/>
		<g>
			<rect x="23.359" y="247.389" style="fill:#263238;" width="287.815" height="9.262"/>
			<rect x="23.359" y="247.389" style="opacity:0.2;enable-background:new    ;" width="58.525" height="9.262"/>
		</g>
		<g>
			<rect x="256.884" y="236.816" style="fill:#263238;" width="17.691" height="10.572"/>
			<rect x="256.884" y="236.816" style="opacity:0.2;enable-background:new    ;" width="17.691" height="10.572"/>
			<rect x="232.136" y="184.341" style="fill:#263238;" width="68.183" height="59.723"/>
			<rect x="232.136" y="184.341" style="opacity:0.2;enable-background:new    ;" width="6.975" height="59.723"/>
		</g>
		<g>
			<rect x="45.509" y="243.223" style="fill:#263238;" width="44.444" height="4.166"/>
			<rect x="67.731" y="181.568" style="fill:#263238;" width="4.246" height="63.738"/>
			<path style="fill:#407BFF;" d="M49.673,149.467h38.03c0.838,32.07,12.726,49.144,12.726,49.144H36.936
				C36.936,198.611,48.835,181.537,49.673,149.467z"/>
			<path style="opacity:0.5;fill:#FFFFFF;enable-background:new    ;" d="M36.936,198.611h63.492c0,0-3.85-5.525-7.328-16.204
				c-3.379-10.662-5.201-21.756-5.409-32.939h-38.03c-0.21,11.178-2.028,22.268-5.398,32.929
				C40.786,193.075,36.936,198.611,36.936,198.611z"/>
			<path style="opacity:0.2;fill:#FFFFFF;enable-background:new    ;" d="M44.264,182.396c9.897,13.486,28.852,16.395,42.338,6.498
				c2.484-1.823,4.675-4.014,6.498-6.498c-3.379-10.662-5.201-21.756-5.409-32.939h-38.03
				C49.453,160.638,47.635,171.732,44.264,182.396z"/>
			<polygon style="opacity:0.2;enable-background:new    ;" points="71.977,214.022 67.731,208.197 67.731,198.611 71.977,198.611 
							"/>
		</g>
		<g style="opacity:0.1;enable-background:new    ;">
			<path style="fill:#FFFFFF;" d="M177.578,453.194c2.504-7.644,4.874-12.727,10.703-18.271c2.21-2.102,5.4-4.102,8.115-2.712
				c2.766,1.417,2.946,5.217,4.344,7.993c1.65,3.276,5.278,5.233,8.924,5.642c3.646,0.41,7.315-0.524,10.751-1.811
				c22.223-8.323,36.338-30.416,57.061-41.978c2.977-1.661,6.198-3.149,9.606-3.184c9.444-0.096,15.355,9.167,16.239,12.038
				l-0.015-19.177c-12.703-3.73-28.508,1.069-39.446,8.528c-10.938,7.459-19.706,17.606-29.306,26.723
				c-3.012,2.86-6.251,5.705-10.223,6.916c-3.973,1.211-8.874,0.343-11.225-3.08c-3.556-5.175-0.512-14.215-6.059-17.159
				c-3.149-1.671-6.969,0.062-10.03,1.889c-15.805,9.436-31.679,22.825-42.6,37.642"/>
		</g>
		<g style="opacity:0.1;enable-background:new    ;">
			<path style="fill:#FFFFFF;" d="M303.32,267.954c-23.339-6.942-50.987,1.994-71.083,15.877s-36.205,32.769-53.844,49.736
				c-5.533,5.323-11.484,10.617-18.782,12.872c-7.298,2.255-16.303,0.639-20.624-5.732c-6.533-9.632-0.941-26.457-11.131-31.936
				c-5.785-3.111-12.804,0.115-18.428,3.516c-29.039,17.561-40.039,29.833-40.5,28.596l1.486,45.915
				c4.601-14.228,12.257-28.138,22.966-38.456c4.06-3.912,9.921-7.636,14.909-5.048c5.082,2.637,5.412,9.711,7.981,14.876
				c3.032,6.098,9.697,9.739,16.395,10.501c6.698,0.762,13.44-0.976,19.752-3.371c40.829-15.491,66.762-56.611,104.837-78.129
				c5.469-3.091,11.387-5.861,17.649-5.926c17.351-0.179,26.793,15.28,28.416,20.624V267.954z"/>
		</g>
	</g>
</g>
<g id="Shadow_1">
	<g style="opacity:0.2;enable-background:new    ;">
		<g>
			<path d="M148.54,347.785c-2.539-1.133-5.538,0.074-7.723,1.793c-2.185,1.719-3.973,3.957-6.383,5.345
				c-2.376,1.369-5.267,1.854-7.329,3.662c-3.089,2.709-3.354,7.474-5.847,10.74c-0.776,1.017-1.746,1.859-2.714,2.703l5.534-17.061
				c1.757-0.357,3.459-0.981,5.004-1.896c4.376-2.591,7.408-7.328,7.93-12.386c0.319-3.098-0.153-6.564,1.769-9.015
				c1.808-2.307,5.253-2.962,6.808-5.447c1.474-2.356,0.705-5.389,0.669-8.168c-0.051-4.009,1.536-7.868,1.816-11.867
				c0.279-3.999-1.423-8.73-5.314-9.695c-3.098-0.768-6.243,1.2-8.366,3.583c-2.122,2.383-3.692,5.273-6.134,7.326
				c-2.409,2.026-5.578,3.157-7.543,5.616c-2.125,2.659-2.375,6.23-3.159,9.588c-0.48-0.702-0.853-1.455-1.002-2.312
				c-0.436-2.516,1.152-5.126,0.453-7.582c-0.662-2.329-3.073-3.603-4.89-5.203c-2.622-2.308-4.19-5.588-6.612-8.104
				c-2.423-2.516-6.476-4.177-9.372-2.225c-2.305,1.554-2.87,4.737-2.568,7.501c0.301,2.764,1.253,5.466,1.155,8.244
				c-0.097,2.741-1.216,5.45-0.774,8.156c0.663,4.055,4.564,6.803,6.016,10.647c0.865,2.292,0.807,4.845,1.616,7.158
				c1.005,2.876,3.292,5.162,5.89,6.752c1.224,0.749,2.523,1.354,3.854,1.893c0.678,1.958,1.513,3.871,2.347,5.77l0.74,0.765
				c0.737,0.311,1.502,0.542,2.277,0.737c-2.414,7.592-4.366,15.258-5.664,22.515c-0.318-2.346-1.399-4.585-3.065-6.268
				c0.7-0.102,1.398-0.211,2.095-0.321l0.826-0.464c2.761-3.586,3.703-8.503,2.464-12.855c-1.239-4.353-4.63-8.036-8.866-9.63
				c-2.594-0.976-5.685-1.355-7.359-3.564c-1.576-2.079-1.361-5.192-3.147-7.093c-1.694-1.803-4.479-1.827-6.879-2.426
				c-3.462-0.864-6.424-3.104-9.803-4.25c-3.379-1.146-7.837-0.751-9.548,2.38c-1.362,2.492-0.381,5.645,1.19,8.012
				c1.571,2.367,3.702,4.371,4.917,6.939c1.198,2.532,1.455,5.516,3.126,7.764c2.505,3.369,7.334,4.031,10.456,6.837
				c1.861,1.674,3.007,4.017,4.826,5.737c0.24,0.227,0.495,0.435,0.754,0.636c-0.264-0.048-0.525-0.117-0.782-0.221
				c-1.81-0.731-2.865-2.814-4.742-3.35c-1.78-0.508-3.578,0.544-5.35,1.08c-2.556,0.773-5.318,0.47-7.928,1.029
				c-2.61,0.56-5.323,2.523-5.222,5.19c0.08,2.124,1.92,3.773,3.837,4.691c1.917,0.918,4.055,1.389,5.82,2.572
				c1.741,1.168,3.05,2.986,4.986,3.79c2.901,1.204,6.258-0.223,9.34,0.383c1.838,0.362,3.472,1.428,5.3,1.835
				c2.273,0.506,4.679-0.058,6.759-1.105c1.978-0.996,3.709-2.406,5.412-3.823c-0.976,6.426-1.379,12.436-1.09,17.696H85.18
				c0,0-1.948,34.099,14.498,47.595l-5.941,7.077h35.941l-6.789-7.434c0,0,13.535-5.839,14.396-47.237h-26.643l4.581-5.98
				l0.192,0.285c3.716,2.411,8.588,2.943,12.737,1.391c4.149-1.552,7.475-5.151,8.697-9.409c0.748-2.608,0.874-5.654,2.897-7.462
				c1.904-1.702,4.958-1.737,6.672-3.63c1.625-1.795,1.429-4.514,1.824-6.903c0.57-3.446,2.522-6.513,3.374-9.9
				C152.466,353.526,151.73,349.208,148.54,347.785z M109.95,398.522l3.817-11.767c0.281,1.774,0.701,3.533,1.124,5.28
				c-1.525,2.175-2.999,4.339-4.416,6.487H109.95z"/>
		</g>
	</g>
</g>
<g id="Plant">
	<g>
		<g>
			<path style="fill:#407BFF;" d="M99.849,408.697c-0.776-3.208-1.557-6.45-1.586-9.75c-0.029-3.3,0.76-6.713,2.827-9.287
				c1.662-2.07,4.042-3.481,5.652-5.591c2.701-3.539,2.988-8.701,6.335-11.636c2.234-1.959,5.366-2.485,7.94-3.968
				c2.61-1.503,4.548-3.928,6.915-5.79c2.367-1.862,5.617-3.169,8.368-1.942c3.456,1.542,4.253,6.22,3.331,9.89
				c-0.923,3.67-3.038,6.993-3.655,10.726c-0.428,2.588-0.216,5.534-1.977,7.479c-1.857,2.051-5.166,2.089-7.229,3.933
				c-2.192,1.959-2.328,5.258-3.138,8.084c-1.323,4.613-4.927,8.512-9.422,10.194c-4.495,1.682-9.773,1.105-13.799-1.507"/>
		</g>
		<g>
			<g>
				<path style="fill:#407BFF;" d="M100.913,362.224c-3.132-1.04-6.296-2.095-9.111-3.817c-2.815-1.722-5.293-4.199-6.382-7.315
					c-0.876-2.506-0.813-5.272-1.751-7.755c-1.573-4.165-5.799-7.141-6.518-11.535c-0.479-2.932,0.733-5.868,0.838-8.837
					c0.107-3.01-0.924-5.938-1.251-8.932c-0.326-2.994,0.285-6.443,2.783-8.127c3.137-2.115,7.529-0.315,10.153,2.411
					c2.625,2.726,4.324,6.279,7.164,8.779c1.969,1.733,4.581,3.113,5.298,5.636c0.757,2.661-0.963,5.489-0.491,8.215
					c0.501,2.896,3.228,4.759,5.196,6.943c3.213,3.565,4.613,8.686,3.66,13.391c-0.953,4.704-4.237,8.876-8.584,10.909"/>
			</g>
			<g style="opacity:0.2;enable-background:new    ;">
				<path d="M100.913,362.224c-3.132-1.04-6.296-2.095-9.111-3.817c-2.815-1.722-5.293-4.199-6.382-7.315
					c-0.876-2.506-0.813-5.272-1.751-7.755c-1.573-4.165-5.799-7.141-6.518-11.535c-0.479-2.932,0.733-5.868,0.838-8.837
					c0.107-3.01-0.924-5.938-1.251-8.932c-0.326-2.994,0.285-6.443,2.783-8.127c3.137-2.115,7.529-0.315,10.153,2.411
					c2.625,2.726,4.324,6.279,7.164,8.779c1.969,1.733,4.581,3.113,5.298,5.636c0.757,2.661-0.963,5.489-0.491,8.215
					c0.501,2.896,3.228,4.759,5.196,6.943c3.213,3.565,4.613,8.686,3.66,13.391c-0.953,4.704-4.237,8.876-8.584,10.909"/>
			</g>
		</g>
		<g>
			<g>
				<path style="fill:#407BFF;" d="M95.307,396.291c-1.938,1.615-3.898,3.245-6.151,4.38c-2.253,1.134-4.86,1.745-7.323,1.197
					c-1.98-0.441-3.752-1.596-5.742-1.988c-3.339-0.657-6.976,0.889-10.119-0.415c-2.098-0.87-3.516-2.841-5.402-4.106
					c-1.912-1.283-4.229-1.792-6.306-2.787c-2.077-0.995-4.07-2.782-4.157-5.083c-0.109-2.89,2.829-5.017,5.658-5.623
					c2.828-0.607,5.821-0.278,8.589-1.115c1.919-0.58,3.868-1.72,5.796-1.17c2.033,0.581,3.177,2.837,5.138,3.629
					c2.083,0.842,4.392-0.179,6.603-0.577c3.611-0.65,7.501,0.504,10.172,3.019c2.671,2.515,4.058,6.329,3.626,9.972"/>
			</g>
			<g style="opacity:0.2;enable-background:new    ;">
				<path d="M95.307,396.291c-1.938,1.615-3.898,3.245-6.151,4.38c-2.253,1.134-4.86,1.745-7.323,1.197
					c-1.98-0.441-3.752-1.596-5.742-1.988c-3.339-0.657-6.976,0.889-10.119-0.415c-2.098-0.87-3.516-2.841-5.402-4.106
					c-1.912-1.283-4.229-1.792-6.306-2.787c-2.077-0.995-4.07-2.782-4.157-5.083c-0.109-2.89,2.829-5.017,5.658-5.623
					c2.828-0.607,5.821-0.278,8.589-1.115c1.919-0.58,3.868-1.72,5.796-1.17c2.033,0.581,3.177,2.837,5.138,3.629
					c2.083,0.842,4.392-0.179,6.603-0.577c3.611-0.65,7.501,0.504,10.172,3.019c2.671,2.515,4.058,6.329,3.626,9.972"/>
			</g>
		</g>
		<g>
			<path style="fill:#407BFF;" d="M94.601,385.59c-3.33,0.526-6.696,1.054-10.059,0.813c-3.363-0.242-6.773-1.326-9.224-3.642
				c-1.971-1.863-3.212-4.402-5.228-6.215c-3.382-3.041-8.614-3.758-11.328-7.408c-1.811-2.436-2.089-5.668-3.387-8.412
				c-1.316-2.782-3.626-4.954-5.327-7.518c-1.702-2.564-2.765-5.98-1.289-8.68c1.854-3.392,6.683-3.819,10.344-2.578
				c3.661,1.241,6.87,3.668,10.621,4.604c2.6,0.649,5.618,0.675,7.453,2.628c1.936,2.059,1.702,5.432,3.41,7.684
				c1.814,2.393,5.163,2.803,7.973,3.861c4.589,1.727,8.263,5.717,9.605,10.433c1.342,4.716,0.321,10.042-2.67,13.927"/>
		</g>
		<g>
			<path style="fill:#407BFF;" d="M98.52,366.709c-1.524-3.468-3.059-6.974-3.758-10.698c-0.698-3.723-0.495-7.739,1.321-11.064
				c1.461-2.674,3.865-4.748,5.259-7.457c2.338-4.544,1.621-10.434,4.812-14.426c2.129-2.664,5.562-3.89,8.172-6.084
				c2.646-2.225,4.347-5.355,6.646-7.937c2.299-2.582,5.708-4.714,9.063-3.882c4.216,1.045,6.06,6.171,5.758,10.503
				c-0.302,4.333-2.023,8.514-1.967,12.857c0.038,3.011,0.872,6.297-0.725,8.849c-1.685,2.692-5.416,3.402-7.375,5.901
				c-2.081,2.655-1.57,6.411-1.916,9.767c-0.565,5.48-3.851,10.612-8.591,13.419c-4.74,2.807-10.82,3.22-15.897,1.08"/>
		</g>
		<path style="fill:#263238;" d="M94.292,417.6c11.246-17.284,24.248-33.406,37.604-49.09c0.337-0.396-0.235-0.973-0.575-0.575
			c-13.4,15.736-26.448,31.914-37.731,49.255C93.304,417.63,94.008,418.038,94.292,417.6L94.292,417.6z"/>
		<path style="fill:#263238;" d="M94.348,417.395c-1.078-13.192,1.633-26.703,5.026-39.386c3.827-14.303,9.057-28.341,15.827-41.517
			c3.227-6.28,6.828-12.437,11.2-17.997c0.32-0.407-0.251-0.986-0.575-0.575c-8.222,10.455-14.081,22.804-18.989,35.095
			c-5.579,13.975-9.974,28.603-12.226,43.501c-1.041,6.889-1.646,13.917-1.077,20.879C93.577,417.913,94.39,417.918,94.348,417.395
			L94.348,417.395z"/>
		<path style="fill:#263238;" d="M95.805,384.722c-3.389-6.888-9.836-11.309-15.98-15.544c-7.492-5.164-14.193-10.935-19.567-18.341
			c-0.304-0.419-1.009-0.014-0.702,0.41c5.103,7.031,11.39,12.762,18.505,17.697c6.453,4.475,13.461,8.909,17.042,16.187
			C95.334,385.601,96.035,385.19,95.805,384.722L95.805,384.722z"/>
		<path style="fill:#263238;" d="M124.105,415.701h-56.45c0,0-2.111,36.943,15.707,51.565l-6.437,7.667h38.938l-7.355-8.054
			C108.508,466.878,123.172,460.552,124.105,415.701z"/>
		<g style="opacity:0.3;enable-background:new    ;">
			<path style="fill:#FFFFFF;" d="M85.74,418.983l-14.729,0.132c0.755,7.96,1.52,15.971,3.679,23.669
				c2.16,7.699,5.815,15.149,11.607,20.661C82.567,449.198,84.042,433.611,85.74,418.983z"/>
		</g>
	</g>
</g>
</svg>
